<svg width="24" height="14" viewBox="0 0 24 14" fill="none" xmlns="http://www.w3.org/2000/svg">
<path d="M12.7974 1.00532L12.7974 1.00534L12.8009 1.00884L22.2678 10.3654C22.4197 10.5284 22.5382 10.7196 22.6167 10.9282C22.6961 11.1394 22.733 11.3643 22.725 11.5899C22.7171 11.8155 22.6645 12.0372 22.5704 12.2423C22.4763 12.4475 22.3424 12.6319 22.1766 12.785L22.17 12.7911L22.1636 12.7974C22.004 12.9557 21.8147 13.081 21.6065 13.166C21.3984 13.251 21.1755 13.2941 20.9507 13.2928L20.9499 13.2928C20.5021 13.2909 20.0729 13.1132 19.7547 12.798C19.7545 12.7978 19.7543 12.7976 19.7541 12.7974L11.938 4.98133L11.5845 4.62778L11.2309 4.98133L3.41447 12.7978C3.41431 12.7979 3.41414 12.7981 3.41398 12.7983C3.09395 13.1161 2.66118 13.2946 2.2101 13.2946C1.75878 13.2946 1.3258 13.116 1.00572 12.7978L1.00532 12.7974C0.845202 12.6386 0.718112 12.4496 0.631382 12.2415C0.544653 12.0333 0.5 11.81 0.5 11.5845C0.5 11.359 0.544653 11.1357 0.631382 10.9275C0.718112 10.7193 0.845202 10.5304 1.00533 10.3716L1.00677 10.3701L10.3701 1.00678L10.3716 1.00532C10.5304 0.845203 10.7193 0.718113 10.9275 0.631383C11.1357 0.544653 11.359 0.5 11.5845 0.5C11.81 0.5 12.0333 0.544653 12.2415 0.631383C12.4496 0.718113 12.6386 0.845203 12.7974 1.00532Z" fill="#4E5154" stroke="white"/>
</svg>
