<svg width="83" height="83" viewBox="0 0 83 83" fill="none" xmlns="http://www.w3.org/2000/svg">
<rect width="83" height="83" rx="41.5" transform="matrix(0 -1 -1 0 83 83)" fill="white"/>
<path d="M50.569 25.926C51.1653 26.5125 51.5 27.3059 51.5 28.133C51.5 28.96 51.1653 29.7534 50.569 30.3399L39.2348 41.5783L50.569 52.6601C51.1653 53.2466 51.5 54.04 51.5 54.867C51.5 55.6941 51.1653 56.4875 50.569 57.074C50.2713 57.3674 49.9172 57.6003 49.527 57.7592C49.1369 57.9182 48.7184 58 48.2957 58C47.873 58 47.4546 57.9182 47.0644 57.7592C46.6742 57.6003 46.3201 57.3674 46.0225 57.074L32.4471 43.8009C32.147 43.5099 31.9088 43.1636 31.7462 42.7822C31.5837 42.4007 31.5 41.9915 31.5 41.5783C31.5 41.165 31.5837 40.7558 31.7462 40.3744C31.9088 39.9929 32.147 39.6467 32.4471 39.3556L46.0225 25.926C46.3201 25.6326 46.6742 25.3997 47.0644 25.2408C47.4546 25.0818 47.873 25 48.2957 25C48.7184 25 49.1369 25.0818 49.527 25.2408C49.9172 25.3997 50.2713 25.6326 50.569 25.926Z" fill="black"/>
</svg>
