<svg width="24" height="24" viewBox="0 0 24 24" fill="none" xmlns="http://www.w3.org/2000/svg">
<path d="M9.25899 16.537L5.71413 12.9187C5.62143 12.8229 5.51104 12.7468 5.38934 12.695C5.26764 12.6431 5.13705 12.6163 5.00516 12.6163C4.87327 12.6163 4.74268 12.6431 4.62098 12.695C4.49928 12.7468 4.38888 12.8229 4.29619 12.9187C4.20236 13.0133 4.12787 13.126 4.07702 13.2502C4.02618 13.3744 4 13.5077 4 13.6423C4 13.7769 4.02618 13.9102 4.07702 14.0345C4.12787 14.1587 4.20236 14.2714 4.29619 14.366L8.53989 18.6976C8.93489 19.1008 9.57296 19.1008 9.96796 18.6976L20.7038 7.74965C20.7976 7.65503 20.8721 7.54235 20.923 7.41812C20.9738 7.2939 21 7.16061 21 7.02599C21 6.89136 20.9738 6.75807 20.923 6.63385C20.8721 6.50963 20.7976 6.39694 20.7038 6.30232C20.6111 6.20655 20.5007 6.13052 20.379 6.07862C20.2573 6.02672 20.1267 6 19.9948 6C19.8629 6 19.7324 6.02672 19.6107 6.07862C19.489 6.13052 19.3786 6.20655 19.2859 6.30232L9.25899 16.537Z" fill="#223A2F"/>
</svg>
