<svg width="406" height="331" viewBox="0 0 406 331" fill="none" xmlns="http://www.w3.org/2000/svg">
<path d="M146.513 138.933C167.79 109.226 178.414 73.2052 176.666 36.7061" stroke="#CCA497" stroke-miterlimit="10"/>
<path d="M200.288 44.6482C200.45 53.0543 194.493 60.9971 186.639 63.9831C178.784 66.969 169.525 65.2774 162.692 60.3867C155.86 55.496 151.359 47.7076 149.631 39.4854" stroke="#CCA497" stroke-miterlimit="10"/>
<path d="M211.82 59.0271C206.547 76.3027 188.168 88.5479 170.201 86.7608C152.235 84.9736 136.621 69.338 134.863 51.3711" stroke="#CCA497" stroke-miterlimit="10"/>
<path d="M174.893 30.4401C173.661 30.7862 172.559 31.4899 171.726 32.4624C170.894 33.4349 170.368 34.6325 170.217 35.9036C170.065 37.1747 170.293 38.4623 170.873 39.6035C171.453 40.7447 172.359 41.6883 173.475 42.3148C174.591 42.9414 175.868 43.2229 177.145 43.1236C178.421 43.0243 179.639 42.5488 180.645 41.7571C181.651 40.9654 182.4 39.8932 182.796 38.676C183.193 37.4588 183.22 36.1513 182.873 34.919C182.409 33.2671 181.307 31.8674 179.811 31.0275C178.314 30.1876 176.546 29.9763 174.893 30.4401Z" fill="#CCA497"/>
<path d="M147.777 33.279C146.546 33.6284 145.446 34.335 144.617 35.3094C143.787 36.2839 143.265 37.4824 143.116 38.7536C142.967 40.0247 143.199 41.3114 143.782 42.451C144.364 43.5905 145.271 44.5318 146.389 45.1557C147.506 45.7797 148.784 46.0584 150.059 45.9565C151.335 45.8547 152.552 45.3769 153.556 44.5835C154.56 43.7902 155.307 42.7169 155.701 41.4993C156.096 40.2818 156.12 38.9747 155.772 37.7432C155.54 36.925 155.15 36.1604 154.623 35.4932C154.095 34.8259 153.442 34.2691 152.7 33.8545C151.957 33.4399 151.14 33.1757 150.296 33.077C149.451 32.9782 148.595 33.0469 147.777 33.279Z" fill="#CCA497"/>
<path d="M198.744 39.1989C197.513 39.5474 196.413 40.2529 195.583 41.2263C194.753 42.1998 194.23 43.3974 194.08 44.668C193.93 45.9386 194.16 47.225 194.741 48.3649C195.322 49.5048 196.228 50.4469 197.344 51.0722C198.46 51.6975 199.736 51.978 201.012 51.8782C202.287 51.7785 203.505 51.3029 204.51 50.5116C205.515 49.7203 206.263 48.6488 206.66 47.4325C207.057 46.2161 207.084 44.9095 206.738 43.6777C206.508 42.8582 206.119 42.092 205.593 41.4232C205.066 40.7543 204.413 40.1959 203.67 39.7799C202.928 39.3638 202.11 39.0983 201.265 38.9986C200.42 38.899 199.563 38.967 198.744 39.1989Z" fill="#CCA497"/>
<path d="M210.305 53.6726C209.074 54.022 207.974 54.7286 207.144 55.703C206.314 56.6774 205.792 57.876 205.643 59.1471C205.495 60.4183 205.726 61.705 206.309 62.8445C206.891 63.9841 207.799 64.9253 208.916 65.5493C210.034 66.1733 211.311 66.4519 212.587 66.3501C213.862 66.2482 215.079 65.7704 216.084 64.9771C217.088 64.1837 217.834 63.1104 218.229 61.8929C218.623 60.6753 218.647 59.3682 218.299 58.1368C218.068 57.3185 217.677 56.554 217.15 55.8867C216.623 55.2195 215.969 54.6627 215.227 54.2481C214.485 53.8335 213.668 53.5693 212.823 53.4705C211.979 53.3718 211.123 53.4405 210.305 53.6726Z" fill="#CCA497"/>
<path d="M133.091 45.1477C131.86 45.4988 130.762 46.2068 129.933 47.1822C129.105 48.1576 128.584 49.3567 128.437 50.6278C128.29 51.899 128.523 53.1852 129.107 54.3239C129.691 55.4626 130.599 56.4027 131.717 57.0254C132.835 57.6481 134.113 57.9253 135.388 57.8222C136.664 57.7191 137.88 57.2402 138.883 56.446C139.887 55.6518 140.632 54.578 141.025 53.3603C141.418 52.1425 141.442 50.8356 141.093 49.6045C140.86 48.7862 140.469 48.0216 139.941 47.3546C139.413 46.6876 138.759 46.1312 138.016 45.7173C137.273 45.3034 136.455 45.04 135.61 44.9423C134.765 44.8445 133.909 44.9144 133.091 45.1477Z" fill="#CCA497"/>
<path d="M124.037 186.451C107.885 173.445 95.4437 156.415 87.9646 137.074C80.4855 117.732 78.2327 96.7621 81.4329 76.2734" stroke="#CCA497" stroke-miterlimit="10"/>
<path d="M81.293 111.869L88.8828 93.3281" stroke="#CCA497" stroke-miterlimit="10"/>
<path d="M82.9992 120.908L69.6582 101.771" stroke="#CCA497" stroke-miterlimit="10"/>
<path d="M85.0732 128.695L93.1852 111.397" stroke="#CCA497" stroke-miterlimit="10"/>
<path d="M90.2506 142.53L73.0117 123.938" stroke="#CCA497" stroke-miterlimit="10"/>
<path d="M80.2413 101.844L70.3643 83.6416" stroke="#CCA497" stroke-miterlimit="10"/>
<path d="M93.958 150.104L98.9076 132.049" stroke="#CCA497" stroke-miterlimit="10"/>
<path d="M101.003 161.628L79.4766 147.066" stroke="#CCA497" stroke-miterlimit="10"/>
<path d="M107.02 169.594L110.079 149.95" stroke="#CCA497" stroke-miterlimit="10"/>
<path d="M115.249 178.588L92.9941 170.035" stroke="#CCA497" stroke-miterlimit="10"/>
<path d="M81.1093 78.3627C79.7959 78.158 78.5727 77.5684 77.5944 76.6686C76.616 75.7687 75.9264 74.599 75.6127 73.3073C75.299 72.0156 75.3753 70.6599 75.832 69.4115C76.2887 68.1632 77.1053 67.0783 78.1785 66.2939C79.2517 65.5096 80.5333 65.0611 81.8614 65.005C83.1895 64.949 84.5044 65.2879 85.6398 65.979C86.7753 66.6702 87.6803 67.6824 88.2406 68.8878C88.8008 70.0933 88.9911 71.4377 88.7874 72.7513C88.652 73.624 88.346 74.4616 87.8868 75.216C87.4276 75.9704 86.8242 76.627 86.1112 77.1481C85.3981 77.6692 84.5894 78.0447 83.7311 78.2531C82.8729 78.4615 81.982 78.4988 81.1093 78.3627Z" fill="#CCA497"/>
<path d="M87.8465 99.9768C86.5329 99.7718 85.3096 99.1818 84.3313 98.2815C83.3529 97.3812 82.6636 96.2111 82.3504 94.919C82.0371 93.6269 82.1141 92.2709 82.5715 91.0226C83.0289 89.7742 83.8463 88.6895 84.9202 87.9057C85.9941 87.1219 87.2763 86.6741 88.6046 86.6191C89.933 86.564 91.2479 86.9041 92.383 87.5963C93.5181 88.2885 94.4224 89.3018 94.9816 90.508C95.5408 91.7142 95.7297 93.0591 95.5245 94.3727C95.2494 96.134 94.2859 97.7139 92.8461 98.7648C91.4062 99.8158 89.6078 100.252 87.8465 99.9768Z" fill="#CCA497"/>
<path d="M68.5037 109.199C67.1901 108.994 65.9668 108.404 64.9885 107.504C64.0102 106.604 63.3208 105.434 63.0076 104.142C62.6944 102.85 62.7713 101.494 63.2287 100.245C63.6862 98.9969 64.5035 97.9122 65.5774 97.1284C66.6513 96.3446 67.9335 95.8968 69.2619 95.8417C70.5902 95.7866 71.9051 96.1267 73.0402 96.8189C74.1753 97.5112 75.0796 98.5245 75.6388 99.7307C76.198 100.937 76.387 102.282 76.1818 103.595C75.9066 105.357 74.9432 106.937 73.5033 107.987C72.0634 109.038 70.265 109.474 68.5037 109.199Z" fill="#CCA497"/>
<path d="M71.9754 130.585C70.6618 130.38 69.4385 129.79 68.4602 128.89C67.4819 127.99 66.7925 126.819 66.4793 125.527C66.166 124.235 66.243 122.879 66.7004 121.631C67.1578 120.383 67.9752 119.298 69.0491 118.514C70.123 117.73 71.4052 117.283 72.7335 117.227C74.0619 117.172 75.3768 117.512 76.5119 118.205C77.647 118.897 78.5513 119.91 79.1105 121.116C79.6697 122.323 79.8586 123.668 79.6535 124.981C79.3783 126.742 78.4149 128.322 76.975 129.373C75.5351 130.424 73.7367 130.86 71.9754 130.585Z" fill="#CCA497"/>
<path d="M92.1482 118.039C90.8346 117.834 89.6113 117.244 88.633 116.344C87.6547 115.444 86.9653 114.274 86.6521 112.981C86.3389 111.689 86.4158 110.333 86.8733 109.085C87.3307 107.837 88.148 106.752 89.2219 105.968C90.2958 105.184 91.578 104.737 92.9064 104.682C94.2348 104.626 95.5496 104.967 96.6847 105.659C97.8198 106.351 98.7242 107.364 99.2834 108.57C99.8426 109.777 100.031 111.122 99.8263 112.435C99.5512 114.196 98.5877 115.776 97.1478 116.827C95.7079 117.878 93.9095 118.314 92.1482 118.039Z" fill="#CCA497"/>
<path d="M69.3349 90.2905C68.0215 90.0857 66.7983 89.4961 65.82 88.5963C64.8416 87.6964 64.152 86.5267 63.8383 85.235C63.5246 83.9433 63.6009 82.5876 64.0576 81.3392C64.5143 80.0909 65.3309 79.006 66.4041 78.2217C67.4773 77.4373 68.7589 76.9888 70.087 76.9327C71.4151 76.8767 72.7299 77.2156 73.8654 77.9068C75.0009 78.5979 75.9059 79.6102 76.4662 80.8156C77.0264 82.021 77.2167 83.3655 77.013 84.679C76.8776 85.5518 76.5716 86.3893 76.1124 87.1437C75.6532 87.8981 75.0498 88.5547 74.3368 89.0758C73.6237 89.5969 72.8149 89.9724 71.9567 90.1809C71.0985 90.3893 70.2076 90.4265 69.3349 90.2905Z" fill="#CCA497"/>
<path d="M97.8701 138.698C96.5567 138.493 95.3335 137.903 94.3551 137.004C93.3767 136.104 92.6871 134.934 92.3734 133.642C92.0598 132.351 92.1361 130.995 92.5928 129.746C93.0495 128.498 93.866 127.413 94.9392 126.629C96.0124 125.845 97.2941 125.396 98.6221 125.34C99.9502 125.284 101.265 125.623 102.401 126.314C103.536 127.005 104.441 128.017 105.001 129.223C105.562 130.428 105.752 131.773 105.548 133.086C105.413 133.959 105.107 134.797 104.648 135.551C104.188 136.305 103.585 136.962 102.872 137.483C102.159 138.004 101.35 138.38 100.492 138.588C99.6336 138.797 98.7427 138.834 97.8701 138.698Z" fill="#CCA497"/>
<path d="M77.7039 154.532C76.3903 154.326 75.167 153.737 74.1887 152.836C73.2104 151.936 72.521 150.766 72.2078 149.474C71.8945 148.182 71.9715 146.826 72.4289 145.577C72.8864 144.329 73.7037 143.244 74.7776 142.46C75.8515 141.677 77.1337 141.229 78.4621 141.174C79.7904 141.119 81.1053 141.459 82.2404 142.151C83.3755 142.843 84.2798 143.856 84.839 145.063C85.3982 146.269 85.5872 147.614 85.382 148.927C85.1068 150.689 84.1434 152.269 82.7035 153.319C81.2636 154.37 79.4652 154.806 77.7039 154.532Z" fill="#CCA497"/>
<path d="M109.049 156.591C107.735 156.388 106.511 155.799 105.531 154.899C104.552 153.999 103.861 152.829 103.547 151.537C103.233 150.245 103.309 148.889 103.765 147.64C104.222 146.391 105.039 145.305 106.113 144.521C107.187 143.736 108.469 143.288 109.798 143.232C111.127 143.177 112.442 143.517 113.577 144.209C114.713 144.901 115.618 145.915 116.177 147.121C116.736 148.328 116.925 149.673 116.72 150.987C116.584 151.859 116.278 152.695 115.82 153.449C115.361 154.203 114.758 154.858 114.046 155.379C113.333 155.899 112.525 156.274 111.668 156.482C110.811 156.69 109.921 156.727 109.049 156.591Z" fill="#CCA497"/>
<path d="M91.9568 176.676C90.6432 176.471 89.4199 175.881 88.4416 174.981C87.4633 174.08 86.7739 172.91 86.4607 171.618C86.1475 170.326 86.2244 168.97 86.6819 167.722C87.1393 166.473 87.9566 165.389 89.0305 164.605C90.1044 163.821 91.3866 163.373 92.715 163.318C94.0434 163.263 95.3583 163.603 96.4933 164.296C97.6284 164.988 98.5328 166.001 99.092 167.207C99.6512 168.413 99.8401 169.758 99.6349 171.072C99.3598 172.833 98.3963 174.413 96.9564 175.464C95.5165 176.515 93.7182 176.951 91.9568 176.676Z" fill="#CCA497"/>
<path d="M273.995 231.827C273.995 231.827 277.849 197.085 305.84 185.038C305.84 185.038 299.464 221.399 273.995 231.827Z" fill="#CCA497"/>
<path d="M271.723 246.822C271.723 246.822 290.013 224.531 316.622 232.496C316.622 232.496 296.823 250.5 271.723 246.822Z" fill="#CCA497"/>
<path d="M252.159 244.668C252.159 244.668 249.1 212.845 269.81 198.695C269.832 198.695 270.435 229.577 252.159 244.668Z" fill="#CCA497"/>
<path d="M252.74 269.505C252.74 269.505 268.251 252.317 294.999 263.665C294.984 263.665 283.077 276.381 252.74 269.505Z" fill="#CCA497"/>
<path d="M221.852 269.078C221.852 269.078 218.63 237.417 237.847 225.944C237.833 225.944 242.929 249.92 221.852 269.078Z" fill="#CCA497"/>
<path d="M183.564 299.061C225.995 283.681 261.813 254.12 284.96 215.375" stroke="#CCA497" stroke-miterlimit="10"/>
<path d="M255.233 253.494L278.679 244.014" stroke="#CCA497" stroke-miterlimit="10"/>
<path d="M246.452 261.738L255.829 234.776" stroke="#CCA497" stroke-miterlimit="10"/>
<path d="M231.272 273.866L262.198 267.578" stroke="#CCA497" stroke-miterlimit="10"/>
<path d="M216.468 283.56L227.205 254.598" stroke="#CCA497" stroke-miterlimit="10"/>
<path d="M206.599 289.022L240.201 288.346" stroke="#CCA497" stroke-miterlimit="10"/>
<path d="M229.941 288.582C229.941 288.582 245.503 273.447 270.943 287.31C270.943 287.288 255.27 299.29 229.941 288.582Z" fill="#CCA497"/>
<path d="M253.211 115.34C253.211 115.34 263.279 87.084 249.916 88.7976C235.465 90.6435 253.211 115.34 253.211 115.34Z" fill="#CCA497"/>
<path d="M264.066 132.019C264.066 132.019 291.079 127.857 284.49 115.921C277.9 103.984 264.066 132.019 264.066 132.019Z" fill="#CCA497"/>
<path d="M262.661 114.075C262.661 114.075 285.982 89.8934 272.134 85.7161C258.285 81.5388 262.661 114.075 262.661 114.075Z" fill="#CCA497"/>
<path d="M243.466 135.293C243.466 135.293 253.395 106.5 238.987 109.663C224.006 112.943 243.466 135.293 243.466 135.293Z" fill="#CCA497"/>
<path d="M249.968 157.671C249.968 157.671 279.569 159.753 272.87 145.456C266.17 131.158 249.968 157.671 249.968 157.671Z" fill="#CCA497"/>
<path d="M224.5 163.88C224.5 163.88 242.974 135.381 226.5 133.947C210.026 132.513 224.5 163.88 224.5 163.88Z" fill="#CCA497"/>
<path d="M207.944 192.239C230.459 173.985 248.036 150.375 259.065 123.57C261.615 117.408 263.811 111.105 265.64 104.691" stroke="#CCA497" stroke-miterlimit="10"/>
<path d="M255.028 132.571L251.998 103.822" stroke="#CCA497" stroke-miterlimit="10"/>
<path d="M251.432 139.647L271.833 127.328" stroke="#CCA497" stroke-miterlimit="10"/>
<path d="M245.041 150.56L242.871 129.445" stroke="#CCA497" stroke-miterlimit="10"/>
<path d="M236.017 163.438L258.168 154.223" stroke="#CCA497" stroke-miterlimit="10"/>
<path d="M223.565 177.86L225.433 149.884" stroke="#CCA497" stroke-miterlimit="10"/>
<path d="M215.468 185.737L244.893 178.419" stroke="#CCA497" stroke-miterlimit="10"/>
<path d="M232.229 181.567C232.229 181.567 260.911 189.656 259.013 176.323C257.116 162.989 232.229 181.567 232.229 181.567Z" fill="#CCA497"/>
<path d="M150.423 163.944C166.798 156.626 170.522 129.319 158.739 102.953C146.956 76.5874 124.128 61.1463 107.753 68.4647C91.3768 75.7831 87.6536 103.09 99.4366 129.456C111.22 155.821 134.047 171.263 150.423 163.944Z" fill="#223A2F"/>
<path d="M152.411 165.027C152.205 164.46 151.992 163.923 151.727 163.335L150.992 161.783L149.558 158.68L147.506 154.267C148.977 151.127 150.448 147.979 151.867 144.809L154.235 139.455C154.971 137.661 155.78 135.873 156.5 134.064C155.552 135.77 154.669 137.506 153.75 139.212L151.102 144.427C149.668 147.258 148.293 150.112 146.917 152.973L146.689 152.48L138.791 135.315L142.468 129.144C143.851 126.813 145.263 124.511 146.616 122.165L150.698 115.141C152.021 112.78 153.382 110.434 154.676 108.059C153.161 110.302 151.735 112.589 150.264 114.854L145.917 121.716C144.446 123.996 143.071 126.32 141.644 128.622L138.247 134.138L135.224 127.6L130.127 116.568L132.863 110.604C133.841 108.397 134.863 106.257 135.805 104.058L138.68 97.4391C139.6 95.2327 140.556 93.0264 141.453 90.82C140.335 92.9381 139.247 95.0856 138.188 97.2184L135.069 103.661C134.003 105.808 133.017 107.985 131.981 110.148L129.568 115.296L121.743 98.3804C122.868 95.196 123.949 92.0041 125.031 88.7829L126.619 83.848C127.105 82.1933 127.634 80.5459 128.09 78.8764C127.355 80.465 126.766 82.0682 126.097 83.6642L124.214 88.496C123.133 91.3054 122.103 94.1369 121.089 96.9757L112.271 77.9424L111.793 78.1483L120.052 97.2699C117.522 96.0711 114.992 94.8797 112.432 93.7471C109.439 92.4086 106.438 91.0922 103.394 89.8713C106.255 91.4819 109.16 92.997 112.079 94.4973C114.999 95.9976 117.816 97.3802 120.706 98.7776L128.097 115.906L122.758 114.281C120.493 113.589 118.235 112.869 115.955 112.222C111.417 110.876 106.865 109.552 102.283 108.338C106.733 109.978 111.212 111.508 115.705 113.016C117.948 113.795 120.206 114.487 122.456 115.222L128.664 117.23L133.488 128.401L136.305 134.939C131.892 133.954 127.428 132.939 122.979 131.998C117.97 130.939 112.955 129.902 107.917 128.975C112.859 130.328 117.823 131.578 122.795 132.807C127.465 133.969 132.15 135.013 136.834 136.146L144.329 153.509L144.542 154.002C141.512 153.12 138.482 152.237 135.43 151.413C131.686 150.384 127.928 149.376 124.141 148.472C127.818 149.795 131.495 151.009 135.172 152.2C138.46 153.274 141.791 154.282 145.079 155.282L147.02 159.775L148.374 162.916L149.05 164.482C149.241 164.946 149.44 165.468 149.617 165.953C150.325 167.997 150.801 170.113 151.036 172.263C151.298 174.28 151.086 176.329 150.418 178.25L153.492 179.427C154.299 177.01 154.521 174.437 154.14 171.918C153.825 169.563 153.245 167.251 152.411 165.027Z" fill="white"/>
<path d="M217.523 152.7C231.486 125.763 229.241 96.8945 212.509 88.2213C195.776 79.5481 170.893 94.3543 156.93 121.292C142.967 148.229 145.212 177.097 161.944 185.771C178.676 194.444 203.56 179.638 217.523 152.7Z" fill="#3D6452"/>
<path d="M187.617 138.094L194.339 136.417C196.773 135.792 199.222 135.218 201.649 134.549L208.945 132.615C211.365 131.924 213.792 131.276 216.204 130.548C213.733 131.019 211.276 131.556 208.805 132.019L201.451 133.652C198.994 134.174 196.553 134.792 194.096 135.358L188.294 136.726L197.119 119.215C200.48 118.06 203.834 116.884 207.158 115.641L212.254 113.714C213.939 113.037 215.638 112.39 217.307 111.677C215.549 112.14 213.814 112.67 212.071 113.148L206.871 114.766C203.848 115.707 200.848 116.715 197.854 117.707L207.724 98.0489L207.246 97.7988L196.95 117.097C196.281 114.236 195.604 111.375 194.861 108.529C194.008 105.197 193.126 101.866 192.133 98.5637C192.677 101.969 193.331 105.352 194.015 108.728C194.699 112.103 195.398 115.347 196.134 118.619L186.896 135.902L184.756 130.438C183.844 128.129 182.962 125.797 182.006 123.503C180.138 118.884 178.247 114.28 176.24 109.713C177.806 114.449 179.483 119.134 181.182 123.819C182.006 126.165 182.91 128.482 183.778 130.813L186.19 137.226L180.16 148.5L176.637 155.119C174.541 150.824 172.474 146.515 170.319 142.249C167.914 137.439 165.487 132.637 162.965 127.886C165.083 132.835 167.304 137.734 169.547 142.595C171.643 147.191 173.835 151.744 175.982 156.318L166.62 173.844L166.348 174.344C165.098 171.27 163.84 168.203 162.524 165.158C160.913 161.408 159.288 157.657 157.545 153.957C158.846 157.833 160.266 161.665 161.7 165.489C162.972 168.894 164.311 172.27 165.657 175.646L163.23 180.183L161.538 183.353L160.685 184.934C160.435 185.39 160.133 185.898 159.825 186.405C158.611 188.329 157.183 190.108 155.566 191.708C154.084 193.242 152.263 194.408 150.249 195.113L151.286 198.415C153.811 197.489 156.079 195.977 157.905 194.003C159.655 192.187 161.19 190.176 162.479 188.009C162.81 187.464 163.112 186.942 163.421 186.339L164.23 184.736L165.84 181.522L168.142 176.933C171.695 176.094 175.239 175.249 178.77 174.329L184.719 172.778C186.69 172.219 188.676 171.696 190.64 171.108C188.61 171.446 186.609 171.844 184.587 172.226L178.461 173.557C175.195 174.234 171.945 174.969 168.701 175.712L168.951 175.197L177.85 157.488L185.352 156.495C188.176 156.105 190.993 155.759 193.809 155.34L202.252 154.097C205.062 153.641 207.871 153.229 210.681 152.737C207.842 152.957 205.01 153.259 202.179 153.524L193.692 154.443C190.868 154.737 188.044 155.112 185.219 155.443L178.461 156.274L181.858 149.508L187.617 138.094Z" fill="white"/>
<path d="M266.112 45.0222C271.289 40.2231 269.22 29.5736 261.491 21.236C253.763 12.8984 243.3 10.0299 238.123 14.829C232.946 19.6281 235.014 30.2775 242.743 38.6152C250.472 46.9528 260.935 49.8213 266.112 45.0222Z" fill="#3D6452"/>
<path d="M251.689 29.9393L251.431 32.5207C251.343 33.4547 251.233 34.3961 251.159 35.3301L250.924 38.1468C250.858 39.0882 250.777 40.0296 250.725 40.971C250.872 40.0369 250.997 39.1029 251.13 38.1763L251.49 35.3669C251.615 34.4328 251.711 33.4988 251.821 32.5648L252.071 30.3585L257.153 35.661C257.153 36.9922 257.153 38.3233 257.153 39.6545V41.699C257.153 42.3757 257.19 43.0523 257.234 43.7362C257.293 43.0596 257.322 42.3757 257.374 41.699L257.462 39.6619C257.506 38.4778 257.535 37.2864 257.558 36.1023L263.235 42.0741L263.382 41.9417L257.889 35.8596C258.977 35.9846 260.095 36.1097 261.169 36.2053C262.456 36.3229 263.743 36.4406 265.03 36.5068C263.765 36.2641 262.485 36.0729 261.213 35.8817C259.94 35.6905 258.705 35.536 257.455 35.3742L252.527 29.9319L254.733 29.8657C255.667 29.8657 256.601 29.8216 257.528 29.7775C259.396 29.7039 261.257 29.6157 263.118 29.4906C261.257 29.4392 259.389 29.4392 257.521 29.4465C256.594 29.4465 255.66 29.4465 254.726 29.4465L252.159 29.4833L248.953 25.9311L247.07 23.8498C248.85 23.6512 250.63 23.4747 252.409 23.2541C254.41 23.0187 256.41 22.7687 258.403 22.4745C256.396 22.5995 254.38 22.7613 252.373 22.9305C250.49 23.0849 248.607 23.2835 246.717 23.46L241.709 17.9368L241.562 17.7823C242.804 17.7309 244.047 17.672 245.29 17.5985C246.813 17.5029 248.342 17.4073 249.865 17.2602C248.335 17.2602 246.805 17.2602 245.276 17.2602C243.915 17.2602 242.554 17.319 241.194 17.3631L239.9 15.9364L239.017 14.995L238.561 14.4949L238.164 14.0095C237.637 13.3272 237.191 12.587 236.833 11.8032C236.48 11.0851 236.301 10.2939 236.311 9.49386L235.009 9.44238C235.022 10.448 235.274 11.4361 235.744 12.3253C236.163 13.1724 236.676 13.9693 237.274 14.7008L237.745 15.2451L238.208 15.7304L239.135 16.7086L240.466 18.0986C240.311 19.4592 240.157 20.8124 240.039 22.173L239.826 24.4675C239.774 25.203 239.708 25.9973 239.672 26.7695C239.804 26.034 239.914 25.2545 240.039 24.497L240.363 22.2171C240.539 20.9815 240.694 19.7386 240.848 18.5398L240.995 18.6943L246.121 24.0483L245.526 26.8136C245.305 27.858 245.07 28.8949 244.856 29.9393L244.224 33.0796C244.033 34.124 243.819 35.1683 243.643 36.22C243.922 35.1903 244.172 34.1534 244.437 33.1237L245.173 30.0128C245.43 28.9832 245.658 27.9388 245.908 26.9019L246.474 24.4161L248.431 26.468L251.689 29.9393Z" fill="white"/>
<path d="M30.5982 280.142C36.8105 276.824 37.5148 266.024 32.1714 256.02C26.8281 246.015 17.4604 240.594 11.2482 243.912C5.03599 247.23 4.33166 258.03 9.67502 268.035C15.0184 278.039 24.386 283.46 30.5982 280.142Z" fill="#3D6452"/>
<path d="M22.1338 262.385L23.031 259.951C23.3546 259.068 23.7003 258.193 24.0092 257.303L24.9505 254.634C25.2447 253.744 25.5609 252.854 25.8478 251.957C25.4727 252.817 25.1123 253.692 24.752 254.56L23.6929 257.178C23.3325 258.053 23.0089 258.936 22.6633 259.819L21.8616 261.9L18.3094 255.487C18.6625 254.207 19.0081 252.92 19.3317 251.626L19.8098 249.647C19.9568 248.978 20.1186 248.316 20.251 247.654C20.023 248.294 19.8171 248.941 19.6038 249.589L19.0008 251.537C18.6551 252.67 18.3315 253.81 18.0153 254.957L14.0291 247.743L13.8453 247.838L17.6328 255.112C16.6032 254.715 15.5736 254.317 14.5366 253.942C13.3305 253.501 12.1096 253.067 10.8594 252.677C12.0287 253.229 13.2128 253.744 14.3969 254.244C15.5809 254.744 16.7356 255.215 17.9049 255.715L21.2954 262.231L19.1552 261.731C18.2433 261.525 17.3387 261.304 16.4267 261.113C14.6028 260.716 12.7495 260.326 10.9476 259.98C12.7348 260.503 14.544 260.973 16.3458 261.451C17.2504 261.694 18.155 261.907 19.0596 262.128L21.5528 262.746L23.7591 266.989L25.0535 269.475C23.2811 269.218 21.5086 268.945 19.7362 268.703C17.7358 268.431 15.7427 268.166 13.735 267.967C15.7133 268.357 17.699 268.703 19.6847 269.048C21.5528 269.372 23.4208 269.659 25.2888 269.96L28.7307 276.579L28.8263 276.771C27.6128 276.506 26.392 276.248 25.1491 276.035C23.6782 275.741 22.1411 275.454 20.6335 275.211C22.1043 275.623 23.5752 275.998 25.0461 276.359C26.3699 276.69 27.6937 276.991 29.0249 277.293L29.9148 278.999L30.5326 280.19L30.8414 280.793C30.9297 280.963 31.0253 281.169 31.1062 281.36C31.4433 282.143 31.6901 282.962 31.8417 283.801C32.0032 284.583 31.978 285.392 31.7681 286.162L33.011 286.545C33.2522 285.581 33.2673 284.574 33.0551 283.603C32.8621 282.679 32.5635 281.781 32.1652 280.926C32.0718 280.704 31.9662 280.488 31.849 280.279L31.5254 279.69L30.8709 278.514L29.9442 276.829C30.437 275.55 30.9223 274.277 31.4151 272.99L32.1947 270.821C32.4374 270.085 32.6948 269.35 32.9301 268.615C32.6065 269.306 32.305 270.019 31.9961 270.718L31.1062 272.843C30.6208 273.991 30.1648 275.153 29.7015 276.315L29.5985 276.123L26.0096 269.629L27.2892 267.099C27.7673 266.143 28.2527 265.202 28.716 264.239L30.1207 261.37C30.5767 260.4 31.04 259.443 31.4813 258.473C30.9518 259.399 30.4443 260.341 29.9295 261.267L28.4145 264.084C27.907 265.026 27.429 265.974 26.9436 266.916L25.7669 269.181L24.3989 266.702L22.1338 262.385Z" fill="white"/>
<path d="M347.465 273.725C354.426 272.547 358.531 262.506 356.635 251.296C354.739 240.087 347.56 231.954 340.599 233.131C333.639 234.308 329.533 244.35 331.429 255.56C333.325 266.769 340.505 274.902 347.465 273.725Z" fill="#3D6452"/>
<path d="M343.671 253.185L342.038 255.207C341.45 255.942 340.847 256.678 340.266 257.413L338.523 259.62C337.957 260.355 337.376 261.091 336.817 261.87C337.449 261.179 338.067 260.458 338.692 259.752L340.531 257.605C341.148 256.869 341.737 256.134 342.34 255.435L343.767 253.721L345.083 260.943C344.348 262.047 343.612 263.15 342.877 264.275L341.788 266.003C341.435 266.584 341.053 267.158 340.737 267.754C341.156 267.217 341.56 266.665 341.965 266.121L343.164 264.466C343.848 263.503 344.524 262.525 345.186 261.524L346.657 269.614H346.855L345.591 261.524C346.436 262.26 347.289 262.937 348.15 263.613C349.157 264.422 350.172 265.224 351.217 265.989C350.283 265.091 349.327 264.224 348.363 263.37C347.4 262.517 346.458 261.701 345.495 260.885L344.362 253.633L346.23 254.78C347.032 255.273 347.819 255.766 348.621 256.251C350.224 257.215 351.827 258.163 353.452 259.075C351.923 258.016 350.364 256.994 348.797 255.972C348.017 255.457 347.231 254.964 346.444 254.501L344.274 253.126L343.539 248.397L343.105 245.624C344.701 246.44 346.289 247.264 347.892 248.051C349.702 248.948 351.511 249.838 353.335 250.691C351.584 249.684 349.819 248.72 348.047 247.75C346.274 246.779 344.701 245.977 343.024 245.095L341.877 237.74L341.84 237.534C342.906 238.167 343.98 238.799 345.061 239.417C346.385 240.152 347.716 240.932 349.077 241.623C347.812 240.755 346.525 239.932 345.23 239.108C344.083 238.373 342.921 237.637 341.759 236.961L341.457 235.056L341.251 233.725L341.148 233.063C341.148 232.872 341.097 232.651 341.082 232.438C341.009 231.589 341.037 230.735 341.163 229.893C341.261 229.103 341.543 228.347 341.987 227.687L340.928 226.951C340.386 227.793 340.049 228.75 339.942 229.746C339.836 230.684 339.836 231.632 339.942 232.57C339.942 232.805 339.994 233.033 340.038 233.305L340.156 233.967L340.398 235.291L340.744 237.189C339.869 238.24 339.001 239.292 338.148 240.358L336.721 242.168C336.258 242.778 335.78 243.381 335.324 243.999C335.853 243.44 336.361 242.866 336.883 242.3L338.405 240.572C339.229 239.638 340.038 238.682 340.84 237.725V237.939L342.178 245.249L340.156 247.235C339.42 247.97 338.633 248.706 337.883 249.485L335.64 251.758C334.904 252.493 334.169 253.287 333.434 254.067C334.228 253.332 335.007 252.633 335.794 251.92L338.126 249.713C338.905 248.978 339.67 248.242 340.435 247.507L342.274 245.734L342.781 248.522L343.671 253.185Z" fill="white"/>
<path d="M100.179 297.694C63.9023 247.087 41.8235 187.696 36.2324 125.681" stroke="#CCA497" stroke-miterlimit="10"/>
<path d="M38.0859 141.992C38.0859 141.992 20.1042 119.671 35.1441 91.334C35.1441 91.334 52.2726 108.499 38.0859 141.992Z" fill="#CCA497"/>
<path d="M42.3145 166.343C42.3145 166.343 14.2867 163.673 11.4258 136.535C11.4478 136.535 35.6587 139.918 42.3145 166.343Z" fill="#CCA497"/>
<path d="M42.315 166.343C42.315 166.343 61.9294 155.193 60.3702 128.158C60.3702 128.158 41.0648 137.859 42.315 166.343Z" fill="#CCA497"/>
<path d="M48.9405 192.621C48.9405 192.621 24.7884 196.364 15.6836 171.175C15.6836 171.175 40.9315 168.704 48.9405 192.621Z" fill="#CCA497"/>
<path d="M48.9411 192.621C48.9411 192.621 66.5919 185.928 67.6215 158.79C67.6215 158.753 48.0733 166.829 48.9411 192.621Z" fill="#CCA497"/>
<path d="M56.9871 216.729C56.9871 216.729 31.423 218.258 22.2373 199.13C22.2373 199.13 46.9042 192.628 56.9871 216.729Z" fill="#CCA497"/>
<path d="M56.9865 216.728C56.9865 216.728 73.0928 210.925 75.1741 186.42C75.1741 186.42 56.4129 193.465 56.9865 216.728Z" fill="#CCA497"/>
<path d="M67.9086 242.645C67.9086 242.645 45.9776 241.836 36.2256 225.678C36.2256 225.678 56.5827 220.589 67.9086 242.645Z" fill="#CCA497"/>
<path d="M67.9086 242.646C67.9086 242.646 85.1989 232.225 80.9333 207.97C80.9333 207.97 64.0842 219.45 67.9086 242.646Z" fill="#CCA497"/>
<path d="M80.2489 266.518C80.2489 266.518 55.9351 269.923 48.4482 250.779C54.7074 250.003 61.0568 251.08 66.7096 253.878C72.3623 256.676 77.0699 261.07 80.2489 266.518Z" fill="#CCA497"/>
<path d="M80.2492 266.518C80.2492 266.518 94.6566 254.016 90.1851 230.055C90.2072 230.025 75.8071 245.19 80.2492 266.518Z" fill="#CCA497"/>
<path d="M92.8322 287.015C92.8322 287.015 72.8648 293.421 61.5684 276.351C61.5684 276.351 80.2561 269.798 92.8322 287.015Z" fill="#CCA497"/>
<path d="M92.8322 287.015C92.8322 287.015 106.931 279.918 102.297 255.465C102.297 255.487 87.6179 267.629 92.8322 287.015Z" fill="#CCA497"/>
<g style="mix-blend-mode:multiply" opacity="0.3">
<path d="M153.066 330.988C221.328 330.988 276.665 321.142 276.665 308.998C276.665 296.853 221.328 287.008 153.066 287.008C84.804 287.008 29.4668 296.853 29.4668 308.998C29.4668 321.142 84.804 330.988 153.066 330.988Z" fill="#E3CCC5"/>
</g>
<path d="M153.065 325.398C193.821 325.398 226.86 316.152 226.86 304.747C226.86 293.342 193.821 284.096 153.065 284.096C112.31 284.096 79.2705 293.342 79.2705 304.747C79.2705 316.152 112.31 325.398 153.065 325.398Z" fill="#E6E6E6"/>
<path d="M153.066 318.258C210.202 318.258 256.521 308.215 256.521 295.827C256.521 283.438 210.202 273.396 153.066 273.396C95.9288 273.396 49.6104 283.438 49.6104 295.827C49.6104 308.215 95.9288 318.258 153.066 318.258Z" fill="white"/>
<path d="M153.065 315.33C207.407 315.33 251.461 306.394 251.461 295.37C251.461 284.347 207.407 275.41 153.065 275.41C98.723 275.41 54.6699 284.347 54.6699 295.37C54.6699 306.394 98.723 315.33 153.065 315.33Z" fill="#F2F2F2"/>
<g style="mix-blend-mode:multiply" opacity="0.5">
<path d="M153.065 307.468C186.002 307.468 212.702 302.051 212.702 295.37C212.702 288.688 186.002 283.271 153.065 283.271C120.128 283.271 93.4277 288.688 93.4277 295.37C93.4277 302.051 120.128 307.468 153.065 307.468Z" fill="#CCCCCC"/>
</g>
<path d="M247.349 284.471C243.837 284.524 240.376 283.63 237.328 281.884C234.28 280.138 231.759 277.604 230.029 274.547C228.298 271.491 227.423 268.024 227.494 264.513C227.566 261.001 228.581 257.573 230.434 254.589C236.215 245.242 247.688 243.366 256.064 241.991C265.787 240.395 276.657 237.821 283.504 230.798C287.729 226.476 290.175 220.724 290.356 214.683C290.537 208.642 288.441 202.753 284.483 198.186C280.525 193.619 274.994 190.706 268.989 190.027C262.983 189.347 256.942 190.951 252.064 194.518C251.405 194.998 250.659 195.344 249.867 195.535C249.075 195.727 248.254 195.761 247.449 195.635C246.644 195.509 245.872 195.225 245.177 194.801C244.481 194.377 243.876 193.819 243.396 193.161C242.916 192.503 242.571 191.757 242.379 190.965C242.187 190.173 242.154 189.351 242.28 188.547C242.406 187.742 242.689 186.97 243.113 186.274C243.538 185.579 244.095 184.974 244.753 184.494C252.138 179.012 261.321 176.521 270.464 177.519C279.606 178.517 288.035 182.931 294.064 189.877C300.092 196.822 303.276 205.788 302.977 214.981C302.679 224.173 298.921 232.914 292.454 239.454C283.099 249.059 269.854 252.317 258.138 254.236C251.446 255.332 243.863 256.575 241.047 261.12C240.481 262.031 240.127 263.056 240.009 264.121C239.891 265.187 240.013 266.265 240.365 267.277C240.717 268.289 241.291 269.21 242.045 269.972C242.799 270.733 243.713 271.317 244.722 271.68C245.73 272.043 246.807 272.176 247.873 272.07C248.94 271.963 249.969 271.62 250.885 271.064C251.802 270.509 252.583 269.756 253.171 268.86C253.759 267.964 254.14 266.948 254.285 265.886C254.534 264.278 255.406 262.832 256.711 261.86C258.017 260.888 259.652 260.467 261.264 260.689C262.876 260.911 264.337 261.757 265.332 263.046C266.326 264.334 266.775 265.961 266.581 267.577C265.993 271.425 264.297 275.017 261.7 277.916C259.104 280.816 255.72 282.896 251.961 283.904C250.453 284.286 248.904 284.476 247.349 284.471Z" fill="#F2F2F2"/>
<g style="mix-blend-mode:multiply" opacity="0.3">
<path d="M230.463 254.59C228.341 258.095 227.364 262.175 227.669 266.261C232.166 260.146 236.035 253.591 239.215 246.698C235.632 248.48 232.605 251.209 230.463 254.59Z" fill="#CCCCCC"/>
<path d="M244.783 184.494C244.124 184.974 243.567 185.579 243.143 186.274C242.718 186.969 242.435 187.742 242.309 188.546C242.183 189.351 242.217 190.173 242.408 190.965C242.6 191.757 242.946 192.503 243.426 193.161C243.906 193.819 244.511 194.376 245.206 194.801C245.901 195.225 246.673 195.508 247.478 195.634C248.283 195.76 249.105 195.727 249.897 195.535C250.688 195.344 251.435 194.998 252.093 194.518C252.586 194.158 253.1 193.827 253.63 193.503C254.292 188.046 254.667 183.207 254.873 179.36C251.259 180.527 247.853 182.26 244.783 184.494Z" fill="#CCCCCC"/>
</g>
<path d="M251.446 169.189H54.6774C54.6774 169.189 51.3679 300.65 153.058 300.65C254.748 300.65 251.446 169.189 251.446 169.189Z" fill="white"/>
<g style="mix-blend-mode:multiply" opacity="0.3">
<path d="M153.058 300.65C175.408 300.65 192.684 294.303 206.01 284.397C192.72 285.331 179.409 285.625 166.156 284.397C146.196 282.58 126.258 277.219 109.416 266.357C86.6543 251.648 71.4158 228.385 57.8027 204.704C64.6644 243.653 86.0953 300.65 153.058 300.65Z" fill="#CCCCCC"/>
</g>
<path d="M153.065 185.464C207.407 185.464 251.461 178.177 251.461 169.189C251.461 160.2 207.407 152.913 153.065 152.913C98.723 152.913 54.6699 160.2 54.6699 169.189C54.6699 178.177 98.723 185.464 153.065 185.464Z" fill="#F2F2F2"/>
<path d="M153.065 182.215C205.007 182.215 247.114 176.061 247.114 168.469C247.114 160.878 205.007 154.724 153.065 154.724C101.124 154.724 59.0166 160.878 59.0166 168.469C59.0166 176.061 101.124 182.215 153.065 182.215Z" fill="#E6E6E6"/>
<path d="M153.065 182.214C199.3 182.214 236.781 178.865 236.781 174.734C236.781 170.604 199.3 167.255 153.065 167.255C106.83 167.255 69.3496 170.604 69.3496 174.734C69.3496 178.865 106.83 182.214 153.065 182.214Z" fill="#BA7C6A"/>
<path d="M81.1533 177.324C98.4069 180.317 124.214 182.215 153.065 182.215C181.917 182.215 207.731 180.317 224.977 177.324C207.731 174.338 181.917 172.44 153.065 172.44C124.214 172.44 98.4069 174.338 81.1533 177.324Z" fill="#D99884"/>
<g style="mix-blend-mode:multiply">
<path d="M119.191 228.172L104.916 220.648C101.238 193.723 101.327 180.059 101.334 179.919C101.334 179.821 101.296 179.727 101.227 179.656C101.158 179.586 101.064 179.546 100.966 179.544C100.918 179.543 100.869 179.552 100.824 179.57C100.779 179.588 100.738 179.615 100.704 179.65C100.67 179.684 100.643 179.725 100.625 179.77C100.606 179.815 100.598 179.863 100.599 179.912C100.599 180.051 100.496 193.745 104.18 220.714L92.3027 231.746L96.9875 267.047L123.883 263.488L119.191 228.172Z" fill="#CCCCCC"/>
</g>
<path d="M100.959 179.912C100.959 179.912 101.003 195.048 105.864 225.561" stroke="#4D574D" stroke-miterlimit="10" stroke-linecap="round"/>
<path d="M125.031 263.143L98.1868 267.077L93.0166 231.849L105.041 220.369L119.86 227.907L125.031 263.143Z" fill="#C79979"/>
<path opacity="0.5" d="M7.00585 59.6226C7.00585 59.9746 6.90147 60.3187 6.7059 60.6113C6.51034 60.904 6.23237 61.1321 5.90716 61.2669C5.58195 61.4016 5.22409 61.4368 4.87885 61.3681C4.53361 61.2995 4.21648 61.13 3.96758 60.881C3.71867 60.6321 3.54916 60.315 3.48049 59.9698C3.41181 59.6245 3.44706 59.2667 3.58177 58.9415C3.71648 58.6162 3.94459 58.3383 4.23728 58.1427C4.52996 57.9472 4.87406 57.8428 5.22607 57.8428C5.6981 57.8428 6.15079 58.0303 6.48456 58.3641C6.81834 58.6978 7.00585 59.1505 7.00585 59.6226Z" fill="#2E5770"/>
<path d="M15.6319 91.5636C15.6318 91.7998 15.5616 92.0308 15.43 92.227C15.2984 92.4232 15.1115 92.5759 14.8929 92.6656C14.6744 92.7554 14.4341 92.7781 14.2025 92.7309C13.971 92.6837 13.7588 92.5688 13.5928 92.4007C13.4267 92.2326 13.3144 92.0189 13.2702 91.7869C13.2259 91.5548 13.2516 91.3148 13.344 91.0974C13.4364 90.8799 13.5914 90.6949 13.7893 90.5658C13.9871 90.4366 14.2189 90.3692 14.4552 90.3722C14.7686 90.376 15.0679 90.5033 15.2881 90.7263C15.5084 90.9493 15.6319 91.2501 15.6319 91.5636Z" fill="white"/>
<path opacity="0.5" d="M48.2274 60.6012C48.991 60.6012 49.61 59.9822 49.61 59.2186C49.61 58.455 48.991 57.8359 48.2274 57.8359C47.4638 57.8359 46.8447 58.455 46.8447 59.2186C46.8447 59.9822 47.4638 60.6012 48.2274 60.6012Z" fill="#2E5770"/>
<path opacity="0.5" d="M84.5288 41.2958C85.3736 41.2958 86.0585 40.6109 86.0585 39.7661C86.0585 38.9212 85.3736 38.2363 84.5288 38.2363C83.6839 38.2363 82.999 38.9212 82.999 39.7661C82.999 40.6109 83.6839 41.2958 84.5288 41.2958Z" fill="#2E5770"/>
<path opacity="0.5" d="M73.0121 8.0969C73.0121 8.45909 72.9047 8.81315 72.7035 9.1143C72.5023 9.41544 72.2163 9.65016 71.8817 9.78876C71.547 9.92737 71.1788 9.96363 70.8236 9.89297C70.4684 9.82231 70.1421 9.6479 69.886 9.3918C69.6299 9.13569 69.4555 8.80939 69.3848 8.45416C69.3141 8.09893 69.3504 7.73073 69.489 7.39611C69.6276 7.06149 69.8623 6.77549 70.1635 6.57426C70.4646 6.37304 70.8187 6.26564 71.1809 6.26564C71.4216 6.26467 71.6602 6.31137 71.8828 6.40306C72.1054 6.49474 72.3077 6.62959 72.4779 6.79984C72.6482 6.97008 72.783 7.17234 72.8747 7.39496C72.9664 7.61758 73.0131 7.85614 73.0121 8.0969Z" fill="#2E5770"/>
<path opacity="0.5" d="M124.037 9.2222C124.039 9.6007 123.928 9.97112 123.719 10.2865C123.509 10.602 123.211 10.8482 122.862 10.994C122.513 11.1399 122.128 11.1788 121.757 11.1059C121.385 11.0329 121.044 10.8514 120.776 10.5843C120.507 10.3171 120.325 9.97644 120.25 9.60531C120.176 9.23419 120.213 8.84934 120.358 8.49951C120.502 8.14968 120.747 7.85061 121.062 7.64017C121.377 7.42973 121.747 7.3174 122.125 7.3174C122.376 7.31643 122.624 7.36498 122.856 7.46028C123.088 7.55557 123.299 7.69572 123.477 7.87269C123.654 8.04967 123.795 8.25998 123.892 8.49156C123.988 8.72314 124.037 8.97144 124.037 9.2222Z" fill="#2E5770"/>
<path opacity="0.5" d="M190.36 6.266C192.09 6.266 193.493 4.86331 193.493 3.133C193.493 1.40269 192.09 0 190.36 0C188.629 0 187.227 1.40269 187.227 3.133C187.227 4.86331 188.629 6.266 190.36 6.266Z" fill="#2E5770"/>
<path opacity="0.5" d="M222.763 38.9497C223.389 38.9497 223.896 38.4427 223.896 37.8172C223.896 37.1916 223.389 36.6846 222.763 36.6846C222.138 36.6846 221.631 37.1916 221.631 37.8172C221.631 38.4427 222.138 38.9497 222.763 38.9497Z" fill="#2E5770"/>
<path opacity="0.5" d="M231.317 82.4501C232.426 82.4501 233.325 81.5512 233.325 80.4423C233.325 79.3335 232.426 78.4346 231.317 78.4346C230.208 78.4346 229.31 79.3335 229.31 80.4423C229.31 81.5512 230.208 82.4501 231.317 82.4501Z" fill="#2E5770"/>
<path opacity="0.5" d="M292.27 167.233C292.27 167.699 292.132 168.154 291.874 168.541C291.615 168.928 291.248 169.229 290.818 169.408C290.387 169.586 289.914 169.632 289.458 169.542C289.001 169.451 288.582 169.227 288.253 168.897C287.924 168.568 287.7 168.149 287.609 167.692C287.518 167.236 287.564 166.763 287.743 166.333C287.921 165.903 288.222 165.535 288.609 165.277C288.996 165.018 289.451 164.88 289.917 164.88C290.541 164.88 291.14 165.128 291.581 165.569C292.022 166.011 292.27 166.609 292.27 167.233Z" fill="#2E5770"/>
<path opacity="0.5" d="M365.44 189.083C365.44 189.272 365.384 189.458 365.279 189.615C365.173 189.772 365.024 189.895 364.849 189.967C364.673 190.039 364.481 190.058 364.295 190.02C364.11 189.983 363.939 189.891 363.806 189.756C363.672 189.622 363.582 189.451 363.546 189.265C363.51 189.079 363.53 188.887 363.603 188.712C363.677 188.537 363.8 188.389 363.959 188.285C364.117 188.18 364.302 188.126 364.492 188.127C364.617 188.127 364.741 188.152 364.857 188.2C364.972 188.248 365.077 188.319 365.165 188.407C365.253 188.496 365.323 188.602 365.37 188.718C365.418 188.834 365.441 188.958 365.44 189.083Z" fill="#2E5770"/>
<path opacity="0.5" d="M314.371 215.111C315.317 215.111 316.084 214.344 316.084 213.397C316.084 212.451 315.317 211.684 314.371 211.684C313.424 211.684 312.657 212.451 312.657 213.397C312.657 214.344 313.424 215.111 314.371 215.111Z" fill="#2E5770"/>
<path opacity="0.5" d="M308.936 256.913C309.415 256.913 309.804 256.525 309.804 256.046C309.804 255.566 309.415 255.178 308.936 255.178C308.457 255.178 308.068 255.566 308.068 256.046C308.068 256.525 308.457 256.913 308.936 256.913Z" fill="#2E5770"/>
<path opacity="0.5" d="M301.567 287.016C301.567 287.503 301.423 287.979 301.152 288.384C300.881 288.789 300.496 289.105 300.046 289.292C299.596 289.478 299.101 289.527 298.623 289.432C298.145 289.337 297.706 289.102 297.361 288.758C297.017 288.413 296.782 287.974 296.687 287.496C296.592 287.018 296.641 286.523 296.827 286.073C297.014 285.622 297.329 285.238 297.735 284.967C298.14 284.696 298.616 284.552 299.103 284.552C299.757 284.552 300.383 284.811 300.846 285.273C301.308 285.735 301.567 286.362 301.567 287.016Z" fill="#2E5770"/>
<path d="M18.9344 222.598C18.9344 223.088 18.7891 223.567 18.5168 223.975C18.2444 224.382 17.8573 224.7 17.4045 224.887C16.9516 225.075 16.4532 225.124 15.9725 225.028C15.4917 224.933 15.0501 224.697 14.7035 224.35C14.3568 224.004 14.1208 223.562 14.0252 223.081C13.9295 222.6 13.9786 222.102 14.1662 221.649C14.3538 221.196 14.6715 220.809 15.079 220.537C15.4866 220.264 15.9658 220.119 16.456 220.119C17.1133 220.119 17.7437 220.38 18.2085 220.845C18.6733 221.31 18.9344 221.94 18.9344 222.598Z" fill="white"/>
<path d="M9.77131 191.165C10.5349 191.165 11.1539 190.546 11.1539 189.782C11.1539 189.018 10.5349 188.399 9.77131 188.399C9.0077 188.399 8.38867 189.018 8.38867 189.782C8.38867 190.546 9.0077 191.165 9.77131 191.165Z" fill="white"/>
<path opacity="0.5" d="M406 256.053C406 256.559 405.849 257.054 405.568 257.475C405.286 257.896 404.886 258.224 404.418 258.418C403.95 258.611 403.435 258.661 402.938 258.562C402.442 258.463 401.986 258.218 401.628 257.86C401.27 257.501 401.027 257.044 400.929 256.547C400.831 256.05 400.883 255.536 401.078 255.068C401.273 254.6 401.602 254.201 402.024 253.921C402.446 253.641 402.941 253.492 403.448 253.493C403.783 253.493 404.116 253.559 404.426 253.688C404.736 253.817 405.018 254.005 405.255 254.243C405.492 254.481 405.68 254.763 405.807 255.074C405.935 255.384 406.001 255.717 406 256.053Z" fill="#2E5770"/>
<path opacity="0.5" d="M383.51 241.094C383.51 241.403 383.418 241.705 383.247 241.961C383.075 242.218 382.831 242.418 382.546 242.535C382.26 242.653 381.947 242.684 381.644 242.623C381.341 242.562 381.063 242.413 380.846 242.194C380.628 241.975 380.48 241.697 380.421 241.394C380.361 241.091 380.393 240.777 380.512 240.493C380.632 240.208 380.833 239.965 381.09 239.794C381.347 239.624 381.649 239.534 381.958 239.535C382.163 239.535 382.365 239.576 382.554 239.654C382.742 239.732 382.914 239.847 383.058 239.992C383.202 240.137 383.316 240.309 383.394 240.498C383.471 240.687 383.511 240.89 383.51 241.094Z" fill="#2E5770"/>
<path opacity="0.5" d="M368.478 291.022C368.478 291.417 368.361 291.802 368.142 292.13C367.923 292.457 367.612 292.713 367.248 292.864C366.884 293.015 366.483 293.054 366.096 292.977C365.71 292.9 365.355 292.71 365.076 292.432C364.797 292.153 364.607 291.798 364.53 291.411C364.454 291.025 364.493 290.624 364.644 290.26C364.795 289.895 365.05 289.584 365.378 289.365C365.706 289.146 366.091 289.029 366.485 289.029C367.014 289.029 367.521 289.239 367.895 289.613C368.268 289.987 368.478 290.494 368.478 291.022Z" fill="#2E5770"/>
<path opacity="0.5" d="M354.909 205.594C354.909 205.885 354.822 206.169 354.661 206.411C354.499 206.653 354.269 206.842 354.001 206.953C353.732 207.064 353.436 207.093 353.151 207.037C352.865 206.98 352.603 206.84 352.398 206.634C352.192 206.428 352.052 206.166 351.995 205.881C351.938 205.596 351.967 205.3 352.079 205.031C352.19 204.762 352.379 204.533 352.621 204.371C352.862 204.209 353.147 204.123 353.438 204.123C353.828 204.123 354.202 204.278 354.478 204.554C354.754 204.83 354.909 205.204 354.909 205.594Z" fill="#2E5770"/>
<path opacity="0.5" d="M320.159 138.778C320.161 139.129 320.058 139.473 319.863 139.765C319.669 140.058 319.393 140.286 319.068 140.421C318.744 140.556 318.387 140.592 318.043 140.524C317.698 140.456 317.382 140.287 317.133 140.038C316.885 139.79 316.716 139.474 316.648 139.129C316.58 138.785 316.616 138.428 316.751 138.103C316.886 137.779 317.114 137.503 317.407 137.308C317.699 137.114 318.043 137.011 318.394 137.013C318.626 137.012 318.856 137.057 319.071 137.145C319.285 137.233 319.48 137.363 319.644 137.528C319.808 137.692 319.938 137.887 320.027 138.101C320.115 138.316 320.16 138.546 320.159 138.778Z" fill="#2E5770"/>
<path d="M21.2885 298.246C21.2885 298.724 21.1465 299.192 20.8807 299.59C20.6148 299.988 20.2369 300.298 19.7948 300.481C19.3527 300.664 18.8662 300.712 18.3968 300.619C17.9274 300.526 17.4963 300.295 17.1579 299.957C16.8195 299.618 16.5891 299.187 16.4957 298.718C16.4024 298.248 16.4503 297.762 16.6334 297.32C16.8165 296.878 17.1267 296.5 17.5246 296.234C17.9225 295.968 18.3903 295.826 18.8688 295.826C19.1869 295.825 19.5019 295.887 19.7959 296.008C20.0899 296.13 20.3571 296.308 20.5819 296.533C20.8068 296.758 20.985 297.025 21.1062 297.319C21.2275 297.613 21.2894 297.928 21.2885 298.246Z" fill="white"/>
<path opacity="0.5" d="M264.067 66.5724C264.065 66.8834 263.972 67.1869 263.798 67.4448C263.624 67.7026 263.378 67.9032 263.09 68.0212C262.802 68.1392 262.486 68.1693 262.181 68.1078C261.876 68.0462 261.597 67.8957 261.377 67.6753C261.158 67.455 261.009 67.1745 260.949 66.8694C260.889 66.5643 260.92 66.2482 261.039 65.9611C261.159 65.6739 261.36 65.4286 261.619 65.2559C261.878 65.0833 262.182 64.9912 262.493 64.9912C262.7 64.9912 262.905 65.0322 263.097 65.1117C263.288 65.1913 263.462 65.3078 263.608 65.4548C263.755 65.6017 263.87 65.7761 263.949 65.9679C264.028 66.1597 264.068 66.3651 264.067 66.5724Z" fill="#2E5770"/>
<path opacity="0.5" d="M296.132 5.37563C296.132 5.75818 296.019 6.13214 295.806 6.45023C295.594 6.76831 295.292 7.01622 294.938 7.16262C294.585 7.30902 294.196 7.34732 293.821 7.27269C293.445 7.19805 293.101 7.01384 292.83 6.74333C292.56 6.47283 292.375 6.12818 292.301 5.75298C292.226 5.37778 292.265 4.98887 292.411 4.63543C292.557 4.282 292.805 3.97992 293.123 3.76738C293.441 3.55485 293.815 3.44141 294.198 3.44141C294.711 3.44141 295.203 3.64519 295.566 4.00793C295.928 4.37066 296.132 4.86264 296.132 5.37563Z" fill="#2E5770"/>
<path opacity="0.5" d="M349.835 17.5911C350.773 17.5911 351.533 16.8305 351.533 15.8922C351.533 14.954 350.773 14.1934 349.835 14.1934C348.896 14.1934 348.136 14.954 348.136 15.8922C348.136 16.8305 348.896 17.5911 349.835 17.5911Z" fill="#2E5770"/>
<path opacity="0.5" d="M363.535 149.185C364.705 149.185 365.653 148.237 365.653 147.067C365.653 145.898 364.705 144.949 363.535 144.949C362.365 144.949 361.417 145.898 361.417 147.067C361.417 148.237 362.365 149.185 363.535 149.185Z" fill="#2E5770"/>
<path opacity="0.5" d="M388.173 156.673C388.175 156.893 388.111 157.109 387.989 157.292C387.868 157.476 387.694 157.619 387.491 157.704C387.288 157.789 387.064 157.812 386.848 157.769C386.632 157.727 386.433 157.621 386.277 157.465C386.122 157.309 386.016 157.111 385.973 156.895C385.931 156.679 385.953 156.455 386.038 156.252C386.123 156.048 386.267 155.875 386.45 155.753C386.634 155.632 386.85 155.568 387.07 155.569C387.363 155.569 387.643 155.686 387.85 155.892C388.057 156.099 388.173 156.38 388.173 156.673Z" fill="#2E5770"/>
<path opacity="0.5" d="M338.199 171.234C338.201 171.473 338.131 171.707 338 171.906C337.868 172.105 337.68 172.261 337.46 172.353C337.24 172.446 336.997 172.471 336.762 172.425C336.528 172.379 336.312 172.265 336.143 172.097C335.974 171.928 335.858 171.713 335.811 171.479C335.764 171.245 335.787 171.002 335.878 170.781C335.969 170.561 336.124 170.372 336.322 170.239C336.521 170.106 336.754 170.035 336.993 170.035C337.312 170.035 337.618 170.161 337.843 170.386C338.069 170.61 338.197 170.915 338.199 171.234Z" fill="#2E5770"/>
</svg>
