<svg width="26" height="23" viewBox="0 0 26 23" fill="none" xmlns="http://www.w3.org/2000/svg">
<path d="M7 2.00665H7.00017C7.98678 2.00648 8.95135 2.29809 9.77249 2.84473C10.5931 3.391 11.2337 4.16756 11.614 5.07672C11.7273 5.35029 11.919 5.58422 12.1649 5.74904C12.412 5.91459 12.7026 6.00296 13 6.00296C13.2974 6.00296 13.588 5.91459 13.8351 5.74904C14.0812 5.58413 14.2729 5.35005 14.3861 5.0763C14.8313 4.01077 15.6318 3.13211 16.6517 2.58972C17.6722 2.04701 18.8493 1.87453 19.9827 2.10163C21.1161 2.32874 22.1357 2.94138 22.8681 3.83527C23.6005 4.72914 24.0005 5.84904 24 7.00442V7.00484C24 10.3006 21.7024 13.5192 18.955 16.1517C16.6587 18.352 14.2029 19.9962 13 20.7514C11.7971 19.9962 9.34132 18.352 7.04498 16.1517C4.29764 13.5192 2 10.3006 2 7.00484C2 5.67933 2.52671 4.40806 3.46436 3.47069C4.40202 2.53332 5.67382 2.00665 7 2.00665Z" stroke="white" stroke-width="2"/>
</svg>
