<svg width="26" height="23" viewBox="0 0 26 23" fill="none" xmlns="http://www.w3.org/2000/svg">
<path d="M13 23C12.9132 22.9971 12.828 22.9758 12.75 22.9375C10.4917 21.6067 8.36905 20.0581 6.4125 18.3139C2.1625 14.4776 3.45698e-06 10.6787 3.45698e-06 7.00484C-0.00151764 5.47425 0.498968 3.98538 1.42478 2.76632C2.35059 1.54727 3.65067 0.665284 5.12582 0.255485C6.60098 -0.154313 8.16984 -0.0693181 9.59206 0.49745C11.0143 1.06422 12.2114 2.0815 13 3.39343C13.7886 2.0815 14.9857 1.06422 16.4079 0.49745C17.8302 -0.0693181 19.399 -0.154313 20.8742 0.255485C22.3493 0.665284 23.6494 1.54727 24.5752 2.76632C25.501 3.98538 26.0015 5.47425 26 7.00484C26 10.6787 23.8375 14.4776 19.5875 18.3139C17.631 20.0581 15.5083 21.6067 13.25 22.9375C13.172 22.9758 13.0868 22.9971 13 23ZM7 1.00665C5.4087 1.00665 3.88258 1.6386 2.75736 2.76348C1.63214 3.88836 1 5.41402 1 7.00484C1 14.4651 11.275 20.8881 13 21.9253C14.725 20.8881 25 14.4651 25 7.00484C25.0006 5.6182 24.5206 4.2742 23.6416 3.20149C22.7627 2.12878 21.5392 1.39363 20.1791 1.12112C18.8191 0.848613 17.4067 1.05558 16.1821 1.7068C14.9576 2.35803 13.9965 3.41329 13.4625 4.69304C13.4248 4.78471 13.3607 4.86313 13.2784 4.91831C13.196 4.9735 13.0991 5.00296 13 5.00296C12.9009 5.00296 12.804 4.9735 12.7216 4.91831C12.6393 4.86313 12.5752 4.78471 12.5375 4.69304C12.0812 3.60099 11.312 2.66828 10.3266 2.01231C9.34129 1.35635 8.18384 1.00645 7 1.00665Z" fill="#0B1700"/>
</svg>
