<svg width="203" height="232" viewBox="0 0 203 232" fill="none" xmlns="http://www.w3.org/2000/svg">
<path fill-rule="evenodd" clip-rule="evenodd" d="M156.949 110.285C153.383 108.553 151.478 120.994 151.763 126.497C149.569 123.908 147.943 121.935 145.408 123.484C141.274 126.029 146.804 133.397 150.015 136.301C150.099 138.274 149.958 140.251 149.596 142.184C147.331 140.76 145.902 137.618 143.654 138.926C139.256 141.477 145.719 151.388 149.793 152.669C149.982 156.761 150.499 160.826 151.337 164.814C149.166 162.167 144.7 159.502 143.763 163.791C142.504 169.619 149.864 172.756 153.209 174.273C154.449 177.202 155.233 181.189 156.862 185.149C158.732 189.75 161.364 197.344 163.971 196.425C168.37 194.867 158.086 180.204 158.353 173.602C158.631 169.838 166.27 163.053 163.158 158.844C161.394 156.495 157.507 157.921 155.963 161.923C154.997 160.229 154.846 155.396 154.743 152.683C158.503 150.256 162.366 147.859 162.555 144.195C161.117 139.598 157.923 141.873 154.795 143.904C153.985 143.071 154.828 139.391 154.975 137.556C160.27 135.37 166.772 129.823 162.95 125.899C161.499 124.41 158.954 125.758 156.558 127.281C155.393 121.674 160.616 112.119 156.949 110.285Z" fill="#FFDF93"/>
<path fill-rule="evenodd" clip-rule="evenodd" d="M117.893 214.228C116.612 213.743 116.558 211.931 116.364 210.583C115.369 204.072 114.856 197.48 114.83 190.874C114.849 188.05 114.777 184.96 115.528 182.444C116.052 180.658 117.233 178.394 118.371 178.184C122.126 177.47 122.745 183.657 122.603 186.201C123.517 186.047 123.484 184.84 123.853 184.225C125.372 181.723 129.467 177.497 131.701 181.969C134.246 187.169 126.751 200.146 123.434 206.042C122.542 207.627 121.533 209.003 120.766 210.396C119.858 212.063 119.372 214.135 117.893 214.228Z" fill="#FFB339"/>
<path fill-rule="evenodd" clip-rule="evenodd" d="M145.106 202.91C144.621 205.16 144.942 206.091 144.076 207.772C143.411 209.029 140.926 209.612 140.918 211.208C140.914 212.496 142.228 212.557 142.915 213.323C143.588 214.248 144.118 215.294 144.484 216.415C145.005 217.95 144.904 219.303 146.041 219.507C147.847 219.825 148.026 215.735 149.153 214.319C149.664 213.794 150.253 213.372 150.892 213.072C151.467 212.743 152.294 212.844 152.485 211.805C152.778 210.204 149.667 209.045 148.8 207.263C148.501 206.316 148.28 205.34 148.139 204.348C148.029 203.832 148.073 202.771 147.507 202.309C147.11 202.067 146.648 201.994 146.206 202.105C145.765 202.215 145.374 202.501 145.106 202.91Z" fill="#FFB339"/>
<path fill-rule="evenodd" clip-rule="evenodd" d="M114.736 148.574C115.853 147.335 117.24 144.351 119.002 145.731C121.391 147.6 117.718 155.103 116.336 159.032C115.511 161.343 113.673 167.37 111.587 166.75C110.125 166.301 110.154 161.657 110.018 158.965C109.82 156.011 109.832 153.043 110.055 150.091C110.281 147.741 110.826 144.727 112.638 144.939C114.239 145.138 114.479 146.808 114.736 148.574Z" fill="#FFDF93"/>
<path fill-rule="evenodd" clip-rule="evenodd" d="M133.833 32.7227C126.203 42.3367 115.603 48.3375 104.178 49.5096C97.5792 50.3023 90.918 48.9169 85.0109 45.5235C80.244 42.8029 75.8314 39.3628 71.8962 35.2991C66.105 29.3205 59.9045 22.7008 53.8983 16.6019C51.8993 14.51 49.9878 12.152 47.6769 10.7963C46.5419 10.1317 43.6608 9.21187 42.6094 10.1956C41.5579 11.1794 42.2028 14.1999 42.7799 15.8804C44.6168 21.1177 47.6121 25.5437 50.3012 29.3706C54.2246 35.0034 58.4724 40.2671 62.0598 45.2635C50.7076 40.6971 40.3897 35.2758 29.0469 30.119C27.7087 29.5121 25.7348 28.5684 23.4053 27.7789C21.9042 27.2678 18.1275 26.148 17.3511 28.1307C16.5747 30.1134 19.0641 32.9108 20.1972 34.2255C21.6011 35.8251 23.1176 37.2952 24.7321 38.6214C34.256 46.9816 45.6951 53.5394 56.9197 59.7642C44.6144 56.318 31.3936 53.2615 18.7244 49.7207C16.9695 49.2286 14.7314 48.5041 12.3862 48.021C9.84262 47.5013 7.22732 47.5562 6.90397 49.9465C6.58063 52.3368 8.96471 54.1109 10.4417 55.2942C12.1154 56.617 13.8619 57.8199 15.6706 58.8959C26.6684 65.6379 38.8849 71.2178 51.091 76.3833C47.7833 79.7232 45.0347 83.7001 42.975 88.126C40.6431 93.5243 39.7886 99.5768 40.5194 105.52C41.5311 114.096 45.6904 120.465 50.4675 125.68C51.9943 127.328 53.9067 129.26 56.1228 129.593C59.8026 130.139 60.6705 126.177 59.8974 124.826C58.4285 122.261 56.4714 120.786 55.0775 118.604C53.3978 115.967 52.3957 112.863 52.1804 109.63C51.9652 106.398 52.545 103.162 53.8567 100.274C55.1683 97.3859 57.1615 94.9576 59.6188 93.2537C62.0761 91.5498 64.9032 90.6357 67.7918 90.6111C72.21 90.5659 76.4669 92.4724 79.643 95.9191C81.1706 97.6084 82.3851 99.6204 83.2164 101.839C84.0476 104.058 84.4792 106.439 84.4861 108.845C84.4954 111.181 84.0926 113.496 83.301 115.656C82.5094 117.816 81.3447 119.779 79.8739 121.431C78.4031 123.084 76.6554 124.394 74.7315 125.285C72.8075 126.176 70.7454 126.632 68.6639 126.625C66.2506 126.645 67.2397 126.461 63.11 126.264C61.2306 126.142 60.4503 127.179 60.2378 128.442C59.6835 131.633 62.3427 132.976 64.3528 133.626C73.334 136.573 82.9074 138.045 92.6747 135.96C106.608 132.964 117.845 126.471 128.076 119.475C138.203 112.538 147.558 104.272 155.944 94.8541C167.174 82.3005 176.99 68.2498 185.173 53.0163C193.72 37.1508 199.687 19.7082 202.797 1.50117L151.449 1.79781C149.87 7.37952 147.778 12.7619 145.207 17.8582C142.489 23.3674 137.625 28.028 133.833 32.7227Z" fill="#FFE5D9"/>
<path fill-rule="evenodd" clip-rule="evenodd" d="M143.515 88.8702C133.659 100.051 121.518 110.776 108.462 118.226C101.398 122.354 93.8969 125.462 86.1372 127.475C79.2606 129.105 72.1951 129.484 65.2111 128.599C64.166 128.437 60.1221 126.779 59.2568 128.035C57.7888 130.15 61.0936 131.842 63.0631 132.668C68.8999 135.103 77.3503 136.29 85.6383 135.315C94.9472 134.227 104.061 131.596 112.682 127.507C128.215 120.241 142.218 109.14 153.678 97.3074C165.617 85.1301 175.94 71.096 184.331 55.6329C193.502 39.13 199.607 20.7185 202.28 1.50298L186.906 1.59277C183.749 20.1346 177.354 35.8778 170.05 50.049C162.732 64.2174 153.813 77.2657 143.515 88.8702Z" fill="#F7CFCD"/>
<path fill-rule="evenodd" clip-rule="evenodd" d="M52.616 25.9396C49.8794 22.216 47.0276 18.0711 45.3384 13.6472C44.7634 12.1323 44.7961 10.0659 43.3341 9.0018L43.1556 8.99022C41.2314 12.6005 44.1844 18.0521 45.7332 21.5214C48.4485 27.401 51.6138 33.0048 55.1934 38.2698C56.3646 40.0715 59.3398 44.6853 60.824 45.7273C61.6431 46.1309 62.4889 46.4624 63.3538 46.7188C69.6995 49.2584 76.2313 51.1694 82.8742 52.4299L80.3316 50.8702C69.786 44.3467 59.975 36.0387 52.616 25.9396Z" fill="#F7CFCD"/>
<path fill-rule="evenodd" clip-rule="evenodd" d="M29.9513 38.4996C27.114 36.1169 23.5632 33.4751 20.7169 30.6545C19.3534 29.3131 18.2057 26.851 16.9227 28.6471C16.452 31.2407 19.465 34.0957 21.0988 35.9157C28.602 44.2393 37.1068 50.2994 46.2722 56.2133C48.5646 57.8109 50.9895 59.1558 53.5129 60.2292C56.416 61.1654 59.3691 61.894 62.3545 62.4105C65.4276 63.1014 68.5304 63.6145 71.6506 63.9475C71.6506 63.9475 68.6945 62.6446 68.1292 62.3715C54.0646 55.6551 41.5254 48.163 29.9513 38.4996Z" fill="#F7CFCD"/>
<path fill-rule="evenodd" clip-rule="evenodd" d="M12.7003 54.188C10.5573 52.6423 8.90558 50.1474 6.72342 49.7694C6.70824 50.0639 6.50573 50.1099 6.69185 50.382C7.70137 53.6863 10.1599 55.8552 12.501 57.8511C22.7297 66.4344 37.3292 72.5826 51.0464 76.2269C45.3883 81.7698 40.2783 89.1449 39.7938 99.9762C39.4438 105.435 40.4303 110.897 42.6465 115.772C44.8627 120.647 48.2244 124.749 52.3681 127.636C53.7424 128.564 56.439 130.406 57.9633 127.81C56.6697 126.544 55.1683 126.446 53.8003 125.601C47.0412 121.439 43.6363 112.696 44.1365 102.788C44.8105 89.7109 51.9194 78.092 60.0568 73.0882C61.0142 72.5003 61.7836 72.4911 62.5746 71.6559C51.3236 69.8265 41.8212 67.5905 32.2315 63.7768C25.192 60.9678 18.3663 58.3026 12.7003 54.188Z" fill="#F7CFCD"/>
<path fill-rule="evenodd" clip-rule="evenodd" d="M45.8549 10.536C43.0703 9.1733 42.2819 12.2072 43.1813 14.5823C44.293 17.5386 49.6204 22.0923 52.1938 19.3751C52.5224 17.2925 51.1234 15.6178 49.8301 14.1391C48.6894 12.7024 47.3465 11.4852 45.8549 10.536ZM44.064 11.3536L44.421 11.3768C47.611 12.4348 49.4999 15.0278 50.5688 18.4068C48.9255 18.2546 47.3799 17.469 46.1942 16.1833C45.0085 14.8976 44.2559 13.1912 44.064 11.3536Z" fill="#EFB4B4"/>
<path fill-rule="evenodd" clip-rule="evenodd" d="M25.5431 29.0049C23.6655 28.032 20.9797 27.2076 19.7769 27.4487C18.5741 27.6898 17.9179 27.9545 17.8077 29.0703C17.4586 32.3691 24.3249 34.8595 27.0097 34.4782C31.7766 33.7592 27.6357 30.0981 25.5431 29.0049ZM18.7044 29.0457C18.7165 28.8101 18.7232 28.6805 18.8831 28.6436C20.3036 28.062 22.6746 29.0669 24.2896 29.8219C25.7087 30.4931 27.4941 31.2118 27.8955 32.6208C24.0467 33.1039 20.3697 31.6833 18.7044 29.0457Z" fill="#EFB4B4"/>
<path fill-rule="evenodd" clip-rule="evenodd" d="M50.3888 120.841C48.341 121.535 48.6774 124.82 49.8761 126.292C50.7082 127.316 56.8356 131.472 57.6224 128.06C58.2075 125.497 52.92 119.965 50.3888 120.841ZM52.7535 127.283C51.7933 126.7 50.3995 125.948 50.2231 124.873C49.5961 121.097 53.2614 123.356 54.5434 124.645C55.5268 125.509 56.2277 126.714 56.5368 128.072C55.1873 128.705 53.888 127.959 52.7535 127.283Z" fill="#EFB4B4"/>
<path fill-rule="evenodd" clip-rule="evenodd" d="M62.4606 128.633C60.7376 127.931 57.839 128.168 58.5102 130.883C58.7451 131.844 61.128 133.027 62.3049 133.493C63.9568 134.144 65.8409 134.786 67.1625 134.08C67.2561 131.651 64.4208 129.434 62.4606 128.633ZM59.4057 130.267C59.4173 130.043 59.4239 129.914 59.5844 129.865C62.4409 129.424 64.6788 131.378 66.0773 133.265C63.8018 134.087 60.6892 131.934 59.4267 130.269L59.4057 130.267Z" fill="#EFB4B4"/>
<path fill-rule="evenodd" clip-rule="evenodd" d="M133.629 31.5623C129.833 35.5625 125.541 38.923 120.885 41.5389C115.618 44.5449 109.877 46.3611 103.986 46.8843C96.0967 47.5379 88.2353 45.2538 81.62 40.3857C77.1089 37.0406 72.7695 33.4125 68.6226 29.5188C62.7264 24.1481 56.6019 17.4859 50.1515 11.831C48.5984 10.4891 44.8668 6.65363 42.5726 8.04137C40.2783 9.42911 42.662 16.3213 43.3373 18.1381C46.8174 27.4655 52.837 34.7354 57.3131 41.9052C46.8823 38.0605 37.7779 32.5998 26.9996 28.3425C25.2754 27.6633 17.1308 24.4279 16.1884 27.9956C15.3095 31.3546 20.5891 36.4252 21.8513 37.6891C28.1607 44.0031 35.0685 49.521 42.4507 54.1439C43.9336 54.8869 45.3316 55.8269 46.6149 56.9436C36.1603 54.173 26.1285 50.3542 15.0496 47.6377C12.1168 46.9036 5.60613 45.6892 5.15656 49.9153C4.76521 53.625 10.9869 57.5866 13.487 59.3564C24.005 66.8237 36.0757 72.3706 49.0395 76.7342C42.5576 82.9329 38.5431 93.7833 39.8153 105.686C40.5894 113.351 43.8271 120.436 48.922 125.615C51.3189 127.957 53.775 130.173 57.7652 129.605C58.4541 131.297 59.6806 132.641 61.2052 133.374C65.1556 135.415 70.1549 136.319 74.9055 136.733C90.5296 138.126 105.01 132.883 115.922 127.197C130.457 119.452 143.791 109.144 155.419 96.6633C167.014 84.4779 177.061 70.5609 185.276 55.3036C193.529 39.882 200.567 22.2775 202.734 1.49645L198.519 1.51845C195.457 22.7024 188.966 38.8885 180.555 54.1225C172.343 69.1668 162.347 82.889 150.842 94.9124C139.312 106.883 127.459 117.343 111.912 125.483C103.903 129.801 95.351 132.715 86.554 134.121C81.4186 134.944 76.2067 134.972 71.0646 134.203C68.5279 133.755 59.1362 131.821 59.6909 128.418C60.2124 125.248 67.1289 127.174 69.0581 127.146C71.2921 127.093 73.4944 126.542 75.5363 125.523C77.5783 124.505 79.4191 123.041 80.9513 121.216C91.9255 108.181 81.7268 84.5054 64.957 87.968C57.0136 89.6156 51.6833 96.3618 51.1345 105.782C50.6562 113.836 53.7485 118.221 56.9712 122.118C57.655 122.955 59.2024 124.202 58.6071 126.35C58.2064 127.789 56.6274 127.971 55.1937 127.582C54.0228 127.16 52.9718 126.399 52.1473 125.375C46.3746 119.699 42.7327 111.78 41.9548 103.213C41.2728 92.5302 44.5034 85.6478 48.8749 80.5415C52.2288 76.7006 56.4478 73.9515 61.0831 72.5868C61.8171 72.3763 62.5355 72.1028 63.2321 71.7688C60.6269 71.4024 57.9817 71.6911 55.4881 72.6138C53.8972 73.2316 52.6539 74.4629 51.3561 74.7096C37.2548 69.7284 23.2881 63.3612 12.3559 54.7323C10.9791 53.65 8.56124 52.122 8.9074 49.6977C10.0733 48.9459 11.5578 49.5742 12.6907 49.8723C26.8749 53.6532 40.6326 58.3521 55.2783 61.5601C60.5594 62.7184 66.0349 64.3976 71.8551 64.0897C71.2693 63.7696 70.6637 63.4973 70.0431 63.2747C66.3067 62.394 62.5437 61.4169 59.0408 60.5041C57.4465 60.1878 55.8779 59.7262 54.3504 59.1241C51.0338 57.254 47.7636 54.8905 44.4207 52.7115C41.0778 50.5324 37.8127 48.2756 34.6592 45.8961C30.038 42.3575 24.9615 38.6593 21.2603 34.2348C19.98 32.7096 18.4476 30.9672 18.1801 28.7986C21.1726 28.579 24.0466 29.8412 26.6536 30.9678C29.2607 32.0944 31.7081 33.4589 34.0528 34.7694C38.9707 37.5635 44.0322 40.0272 49.2104 42.1477C54.4739 44.2623 59.8003 46.381 65.452 48.3198C71.1037 50.2587 76.9141 52.1842 83.4734 52.4561C82.5923 52.0083 81.6917 51.6105 80.7749 51.2645C75.7478 49.6735 71.2545 47.538 66.6934 45.6936C65.0223 45.0059 62.165 44.4423 60.9285 43.4992C59.9722 42.3954 59.1203 41.1834 58.3865 39.8827C53.8929 33.2555 49.7075 27.393 46.4127 20.1935C45.0508 17.1855 43.2244 13.9937 43.6565 10.3103C46.629 11.9098 48.8429 14.7366 51.2585 17.1274C53.674 19.5181 56.0791 22.1091 58.491 24.5706C63.4654 29.3486 68.6559 33.8358 74.0418 38.0145C79.267 42.3015 84.8003 46.5376 90.4877 50.4409C95.5847 54.1293 101.106 57.0208 106.899 59.0354C107.604 59.2584 108.623 60.1401 109.418 59.4234C104.354 57.2035 99.5134 54.3893 94.9766 51.0277C93.5419 50.0549 92.2058 48.91 90.9916 47.6131C94.7041 49.0488 98.6045 49.7774 102.531 49.7686C116.505 49.6589 127.391 42.4221 135.241 34.2201C139.276 29.9375 142.774 25.0586 145.637 19.7177C148.697 14.2505 150.762 8.15771 151.712 1.79066L149.668 1.81163C147.154 14.0006 140.695 24.2432 133.629 31.5623ZM55.6404 117.895C53.7779 114.951 52.8148 111.409 52.8951 107.8C52.9324 103.512 54.4106 99.3991 57.034 96.2822C59.6575 93.1652 63.2329 91.2743 67.0452 90.9876C69.0308 90.8836 71.0153 91.2195 72.8852 91.9761C74.7552 92.7326 76.474 93.8951 77.9436 95.397C79.4132 96.899 80.6048 98.711 81.4502 100.73C82.2957 102.748 82.7786 104.934 82.8713 107.162C82.9639 109.39 82.6646 111.617 81.9903 113.715C81.3161 115.813 80.2801 117.742 78.9416 119.391C77.603 121.04 75.9881 122.377 74.1891 123.326C72.3901 124.274 70.4421 124.816 68.4565 124.92C65.8079 125.008 63.3799 123.882 60.3425 124.973C60.1533 121.285 57.1851 120.217 55.6404 117.895Z" fill="#EFB4B4"/>
<path fill-rule="evenodd" clip-rule="evenodd" d="M100.14 151.338C94.56 154.747 88.9156 158.387 83.4853 161.758C81.5846 162.749 79.7789 163.955 78.0961 165.356C78.5623 185.741 78.4667 209.329 78.999 229.659C100.403 219.757 78.999 229.659 100.403 219.757C100.14 195.182 100.14 192.402 100.403 151.544C100.257 151.523 100.264 151.381 100.14 151.338Z" fill="#FED064"/>
<path fill-rule="evenodd" clip-rule="evenodd" d="M22.1885 161.315C22.6467 183.082 22.9179 205.002 23.5632 226.616C50.499 227.991 50.499 227.991 79.2008 229.659C78.7834 209.144 78.4725 185.771 78.2682 165.072C59.2967 163.427 40.865 162.55 22.1885 161.315Z" fill="#FFDF93"/>
<path fill-rule="evenodd" clip-rule="evenodd" d="M99.0503 151.185C98.4309 151.144 97.696 151.097 97.129 151.06C78.1118 150.098 58.5666 149.16 39.7148 148.055C34.5516 151.763 22.1774 161.302 22.1774 161.302C22.1774 161.302 57.2623 163.839 74.6403 165.333C75.7783 165.54 76.9323 165.615 78.084 165.557C79.0196 165.173 79.9119 164.668 80.7425 164.051C87.0536 160.146 93.2619 155.986 99.3195 152.502C99.7648 151.834 99.4252 151.883 100.227 151.852C100.367 150.986 99.2906 151.224 99.0503 151.185Z" fill="#FFB339"/>
<path fill-rule="evenodd" clip-rule="evenodd" d="M91.4846 156.97C90.7446 157.617 89.8867 158.074 88.9717 158.308C88.9717 158.308 88.9988 161.666 89.0069 163.144C89.0394 183.974 89.499 224.654 89.499 224.654L92.499 223.542C92.499 223.542 91.9726 179.59 91.7485 157.164C91.6021 157.143 91.5983 157.012 91.4846 156.97Z" fill="#2E5770"/>
<path fill-rule="evenodd" clip-rule="evenodd" d="M52.5687 163.371C51.3939 163.069 49.9334 163.2 49.1595 162.888C49.0686 162.904 48.9858 162.957 48.9258 163.036C48.8658 163.115 48.8324 163.215 48.8317 163.32C49.0254 184.7 49.4717 227.965 49.4717 227.965L52.999 227.991C52.999 227.991 52.4226 184.396 52.5687 163.371Z" fill="#2E5770"/>
<path fill-rule="evenodd" clip-rule="evenodd" d="M74.091 140.25C71.7966 144.546 68.8904 148.39 65.4879 151.63C63.8059 153.2 62.0099 155.14 59.565 155.159C59.8637 149.362 58.2386 144.718 56.1444 139.771C55.2236 137.535 54.1168 135.401 52.8386 133.399C52.0489 132.165 49.7464 128.399 47.8234 128.51C46.7669 128.572 46.2179 130.026 45.7372 131.176C48.2215 132.437 49.4692 134.799 50.9033 137.02C54.3476 142.257 56.9336 148.141 58.5404 154.395C53.4464 146.133 47.3711 138.717 36.5296 135.484C35.9452 135.99 36.9895 136.779 36.6384 137.052C35.8588 137.462 34.48 137.03 34.0436 137.935C34.4951 138.223 34.9957 138.4 35.5126 138.456C39.4411 139.548 43.1732 141.389 46.5457 143.9C50.0852 146.352 53.9438 149.357 56.391 152.565C57.3801 153.811 58.137 156.295 59.8164 156.617C61.9022 157.024 65.6257 154.476 66.8019 153.524C70.7555 150.276 74.1188 146.209 76.7105 141.543C78.3615 138.973 79.3227 135.927 79.4806 132.763C78.5744 132.605 77.6567 132.546 76.7403 132.586C76.7559 135.553 75.3297 138.085 74.091 140.25Z" fill="#3A7092"/>
<path fill-rule="evenodd" clip-rule="evenodd" d="M73.1547 149.835L70.8554 149.685C69.4627 151.313 67.853 152.688 66.0841 153.761C64.514 154.838 62.684 155.339 60.8484 155.194C64.0888 151.8 68.2221 149.68 72.5874 147.966C77.2965 146.003 82.2833 145.013 87.3067 145.044C87.1724 143.971 86.1013 143.701 85.2943 143.211C85.4343 142.948 86.391 142.372 85.7015 142.056C80.296 141.267 75.7441 143.537 71.7423 145.559C67.6309 147.494 63.8637 150.245 60.6211 153.678C60.629 153.525 60.7562 153.51 60.7938 153.394C63.3894 147.18 68.3121 138.941 73.0633 135.054C74.7788 133.652 77.0125 132.213 79.3852 132.982C79.4817 131.108 78.2114 130.411 76.7933 130.13C75.807 129.988 74.8053 130.066 73.8463 130.361C72.8872 130.656 71.9897 131.161 71.2059 131.848C65.5702 136.139 61.6315 146.746 59.0692 155.173C56.9694 155.037 55.2425 153.389 53.7658 151.792C50.9358 148.668 48.7116 144.922 47.2329 140.789C46.217 138.016 44.6958 133.603 46.3226 130.245C46.7356 129.385 47.5067 129.14 47.6099 128.567C44.391 128.276 42.9483 130.924 42.9096 134.74C42.8693 138.791 44.7524 143.133 46.7401 146.466C48.7009 149.846 51.2586 152.74 54.2552 154.967C48.3338 154.583 32.0358 153.797 32.0358 153.797L29.5907 155.66C29.5907 155.66 48.8092 156.6 58.307 157.086C56.7974 158.17 55.153 159.009 53.5532 160.005C51.9128 160.91 50.3571 161.997 48.9089 163.249C49.9637 163.223 50.8671 163.885 52.1824 163.71C53.0735 163.326 53.9174 162.817 54.6939 162.194C56.6319 160.973 57.8915 160.038 59.7746 158.86C60.7431 158.261 62.1341 157.228 62.8592 157.263C69.6767 157.635 78.6114 158.215 85.7031 158.58C87.9814 158.728 89.1096 158.707 90.3379 157.971C90.7771 157.733 91.1832 157.425 91.5438 157.056C82.9942 156.159 73.9006 156.006 65.2847 155.577C67.8592 153.451 73.1547 149.835 73.1547 149.835Z" fill="#2E5770"/>
<path fill-rule="evenodd" clip-rule="evenodd" d="M65.1056 105.933C64.993 105.666 65.1834 104.425 64.4643 104.887C60.8371 109.45 59.7859 114.926 59.1665 119.791C59.0585 120.659 58.9617 121.515 58.8655 122.36C58.7369 123.628 59.3142 124.895 59.2202 126.106C59.1777 126.931 58.4003 127.708 58.3596 128.497C57.7962 137.087 58.215 145.722 59.6056 154.192C59.8791 152.768 59.7338 142.712 60.4194 131.657C60.4735 130.608 59.031 129.368 59.1171 128.31C59.2033 127.252 60.7855 126.598 60.8767 125.647C61.0308 123.884 61.2268 122.123 61.4421 120.4C62.0953 115.288 64.4053 110.119 67.5924 105.102C66.7219 104.62 65.9198 105.466 65.1056 105.933Z" fill="#2E5770"/>
</svg>
