<svg width="19" height="16" viewBox="0 0 19 16" fill="none" xmlns="http://www.w3.org/2000/svg">
<path d="M9.67722 11.4004C9.59622 11.4064 9.51523 11.4095 9.43423 11.4095C7.71123 11.4095 6.31223 10.0105 6.31223 8.28746C6.31223 8.18646 6.3172 8.08543 6.3262 7.98643" stroke="#4E5154" stroke-miterlimit="1.5" stroke-linecap="round" stroke-linejoin="round"/>
<path d="M7.20023 6.10844C7.76723 5.52744 8.55923 5.16643 9.43423 5.16643C11.1572 5.16643 12.5552 6.56546 12.5552 8.28746C12.5552 9.16346 12.1952 9.95447 11.6142 10.5215" stroke="#4E5154" stroke-miterlimit="1.5" stroke-linecap="round" stroke-linejoin="round"/>
<path d="M4.22818 3.13547C5.56118 2.07547 7.28221 1.27448 9.44321 1.27448C15.8472 1.27448 18.3682 8.28748 18.3682 8.28748C18.3682 8.28748 17.1692 11.3774 14.5482 13.4554" stroke="#4E5154" stroke-miterlimit="1.5" stroke-linecap="round" stroke-linejoin="round"/>
<path d="M12.7502 14.5724C11.7832 15.0204 10.6822 15.3005 9.44321 15.3005C3.03821 15.3005 0.499176 8.28746 0.499176 8.28746C0.578176 8.07746 1.29016 6.25445 2.79416 4.51945" stroke="#4E5154" stroke-miterlimit="1.5" stroke-linecap="round" stroke-linejoin="round"/>
<path d="M2.36722 1.27448L16.5002 15.4075" stroke="#4E5154" stroke-miterlimit="1.5" stroke-linecap="round" stroke-linejoin="round"/>
</svg>
