<svg width="84" height="75" viewBox="0 0 84 75" fill="none" xmlns="http://www.w3.org/2000/svg">
<path d="M44.3182 0L48.5455 8.08889C47.9818 8.37778 47.4182 8.66667 46.8545 9.24444C45.4455 9.82222 43.7545 10.1111 41.5 10.1111C39.2455 10.1111 37.5545 9.82222 36.1455 9.24444C35.5818 8.66667 35.0182 8.37778 34.4545 8.08889L38.6818 0H26C26.5636 2.6 27.6909 4.62222 28.8182 6.64444C30.2273 8.66667 32.2 10.1111 34.1727 11.2667C36.4273 12.4222 38.6818 13 41.5 13C44.3182 13 46.5727 12.4222 48.8273 11.2667C50.8 10.1111 52.4909 8.66667 53.9 6.64444C55.3091 4.62222 56.4364 2.6 57 0H44.3182Z" fill="#FED064"/>
<path d="M46.5455 17L53.3636 29.6761C52.5114 30.2394 51.6591 30.8028 50.5227 31.3662C48.25 32.493 45.4091 32.7746 42 32.7746C38.5909 32.7746 35.75 32.493 33.4773 31.3662C32.3409 30.8028 31.4886 30.2394 30.6364 29.6761L37.4545 17H17C18.1364 20.9437 19.8409 24.6056 21.8295 27.4225C24.1023 30.5211 26.9432 32.7746 30.3523 34.4648C33.7614 36.1549 37.7386 37 42 37C46.2614 37 50.2386 36.1549 53.6477 34.4648C57.0568 32.7746 59.8977 30.5211 62.1705 27.4225C64.1591 24.6056 65.8636 20.9437 67 17H46.5455Z" fill="#ED6F7A"/>
<path d="M49.9459 41L61.0135 62.5333C59.5946 63.3833 58.1757 64.2333 56.473 65.0833C52.5 67.0667 47.6757 67.9167 42 67.9167C36.0405 67.9167 31.2162 67.0667 27.527 65.0833C25.8243 64.2333 24.4054 63.3833 22.9865 62.5333L34.0541 41H0C1.7027 47.8 4.54054 53.75 8.22973 58.85C11.9189 63.95 16.7432 67.9167 22.4189 70.75C28.0946 73.5833 34.6216 75 42 75C49.0946 75 55.6216 73.5833 61.5811 70.75C67.2568 67.9167 72.0811 63.95 75.7703 58.85C79.4595 53.75 82.2973 47.8 84 41H49.9459Z" fill="#2E5770"/>
</svg>
