<svg width="141" height="22" viewBox="0 0 141 22" fill="none" xmlns="http://www.w3.org/2000/svg">
<path d="M12.0702 3.27027V10.3649C11.7895 10.6486 11.2281 10.9324 10.6667 11.2162C10.1053 11.5 9.26316 11.5 8.14035 11.5C6.73684 11.5 5.61404 11.2162 5.05263 10.3649C4.21053 9.51351 3.92982 8.37838 3.92982 6.67568V3.27027V1H0V3.27027V7.24324C0 8.66216 0.280702 10.0811 0.842105 11.2162C1.40351 12.0676 1.96491 12.9189 3.08772 13.4865C3.92982 13.7703 5.05263 14.0541 6.17544 14.0541C7.29825 14.0541 8.14035 14.0541 8.98246 13.4865C9.82456 13.2027 10.6667 12.6351 11.2281 12.3514C11.5088 12.0676 11.7895 11.5 12.0702 11.2162V19.4459V22H16V19.4459V3.27027V1H12.0702V3.27027Z" fill="#2B2A29"/>
<path d="M33.7143 11.8947C33.7143 10.4912 33.4286 9.36842 32.8571 8.52632C32.2857 7.68421 31.4286 7.12281 30.5714 6.5614C29.7143 6.2807 28.5714 6 27.4286 6C26.2857 6 25.4286 6.2807 24.5714 6.5614C23.7143 6.84211 22.8571 7.12281 22.2857 7.68421C21.4286 7.96491 20.8571 8.52632 20.5714 8.80702L22.2857 11.3333C22.8571 10.4912 23.4286 10.2105 24.2857 9.64912C25.1429 9.36842 25.7143 9.08772 26.5714 9.08772C27.1429 9.08772 27.7143 9.36842 28.2857 9.36842C28.8571 9.64912 29.1429 9.92982 29.4286 10.4912C29.7143 10.7719 30 11.614 30 12.1754V13.0175L26.5714 13.2982C25.1429 13.5789 24 13.5789 23.1429 14.1404C22 14.4211 21.4286 14.7018 20.8571 15.5439C20.2857 16.1053 20 16.9474 20 17.7895C20 18.6316 20 19.193 20.5714 20.0351C21.1429 20.5965 21.7143 21.1579 22.2857 21.4386C23.1429 21.7193 24 22 24.8571 22C26 22 26.8571 21.7193 27.7143 21.4386C28.5714 20.8772 29.1429 20.3158 29.4286 19.7544C29.7143 19.193 30 18.3509 30 17.7895L30.2857 22L34 21.4386L33.7143 18.3509V11.8947ZM29.4286 18.3509C29.1429 18.6316 28.8571 18.9123 28.2857 18.9123C27.7143 19.193 27.1429 19.193 26.5714 19.193C26 19.193 25.7143 19.193 25.1429 18.9123C24.5714 18.9123 24.2857 18.6316 24 18.0702C23.7143 17.7895 23.7143 17.2281 23.7143 16.9474C23.7143 16.1053 24 15.5439 24.5714 14.9825C25.4286 14.7018 26.2857 14.4211 27.1429 14.1404H30V17.2281C30 17.5088 29.7143 18.0702 29.4286 18.3509Z" fill="#2B2A29"/>
<path d="M42.7027 3.46667C43.2432 3.73333 44.0541 4 44.8649 4C45.9459 4 46.7568 3.73333 47.2973 3.46667C48.1081 3.2 48.6486 2.66667 48.9189 2.13333C49.4595 1.6 49.7297 0.8 50 0H45.9459L47.2973 2.4C47.027 2.66667 47.027 2.66667 46.7568 2.93333C46.2162 2.93333 45.6757 3.2 44.8649 3.2C44.3243 3.2 43.7838 2.93333 43.2432 2.93333C42.973 2.66667 42.973 2.66667 42.7027 2.4L44.0541 0H40C40.2703 0.8 40.5405 1.6 41.0811 2.13333C41.3514 2.66667 41.8919 3.2 42.7027 3.46667Z" fill="#2B2A29"/>
<path d="M41.64 19.6727V8.32727V6H38V8.32727V20.2545V22H41.64L48.36 8.61818V19.6727V22H52V19.6727V8.03636V6H48.36L41.64 19.6727Z" fill="#2B2A29"/>
<path d="M67.2857 8.32727V13.2727H60.7143V8.32727V6H57V8.32727V19.6727V22H60.7143V19.6727V14.1455H67.2857V19.6727V22H71V19.6727V8.32727V6H67.2857V8.32727Z" fill="#2B2A29"/>
<path d="M89 11.8947C89 10.4912 88.7083 9.36842 88.125 8.52632C87.5417 7.68421 86.6667 7.12281 85.7917 6.5614C84.9167 6.2807 83.75 6 82.5833 6C81.4167 6 80.5417 6.2807 79.6667 6.5614C78.7917 6.84211 77.9167 7.12281 77.3333 7.68421C76.4583 7.96491 75.875 8.52632 75.5833 8.80702L77.3333 11.3333C77.9167 10.4912 78.5 10.2105 79.375 9.64912C80.25 9.36842 80.8333 9.08772 81.7083 9.08772C82.2917 9.08772 82.875 9.36842 83.4583 9.36842C84.0417 9.64912 84.3333 9.92982 84.625 10.4912C84.9167 10.7719 85.2083 11.614 85.2083 12.1754V13.0175L81.7083 13.2982C80.25 13.5789 79.0833 13.5789 78.2083 14.1404C77.0417 14.4211 76.4583 14.7018 75.875 15.5439C75.2917 16.1053 75 16.9474 75 17.7895C75 18.6316 75 19.193 75.5833 20.0351C76.1667 20.5965 76.75 21.1579 77.3333 21.4386C78.2083 21.7193 79.0833 22 79.9583 22C81.125 22 82 21.7193 82.875 21.4386C83.4583 20.8772 84.3333 20.3158 84.625 19.7544C84.9167 19.193 85.2083 18.3509 85.2083 17.7895L85.5 22L89 21.4386V18.3509V11.8947ZM84.625 18.3509C84.3333 18.6316 84.0417 18.9123 83.4583 18.9123C82.875 19.193 82.2917 19.193 81.7083 19.193C81.125 19.193 80.5417 19.193 80.25 18.9123C79.6667 18.9123 79.375 18.6316 79.0833 18.0702C78.7917 17.7895 78.7917 17.2281 78.7917 16.9474C78.7917 16.1053 79.0833 15.5439 79.6667 14.9825C80.5417 14.7018 81.4167 14.4211 82.2917 14.1404H85.2083V17.2281C85.2083 17.5088 84.9167 18.0702 84.625 18.3509Z" fill="#2B2A29"/>
<path d="M101.326 8.32727V13.2727C101.326 13.2727 101.043 13.5636 100.478 13.8545C99.913 13.8545 99.3478 14.1455 98.7826 14.1455C97.6522 14.1455 97.087 13.8545 96.5217 13.2727C95.9565 12.6909 95.6739 11.8182 95.6739 10.6545V8.32727V6H92V8.32727V11.2364C92 12.4 92.2826 13.2727 92.5652 13.8545C93.1304 14.7273 93.6957 15.3091 94.2609 15.6C95.1087 16.1818 95.9565 16.1818 96.8043 16.1818C97.6522 16.1818 98.5 16.1818 99.0652 15.8909C99.6304 15.6 100.196 15.3091 100.761 14.7273C101.043 14.4364 101.326 14.4364 101.326 14.1455V19.6727V22H105V19.6727V8.32727V6H101.326V8.32727Z" fill="#2B2A29"/>
<path d="M122.714 11.8947C122.714 10.4912 122.429 9.36842 121.857 8.52632C121.286 7.68421 120.429 7.12281 119.571 6.5614C118.714 6.2807 117.571 6 116.429 6C115.571 6 114.429 6.2807 113.571 6.5614C112.714 6.84211 111.857 7.12281 111.286 7.68421C110.429 7.96491 109.857 8.52632 109.571 8.80702L111.286 11.3333C111.857 10.4912 112.429 10.2105 113.286 9.64912C114.143 9.36842 115 9.08772 115.571 9.08772C116.429 9.08772 116.714 9.36842 117.286 9.36842C117.857 9.64912 118.143 9.92982 118.429 10.4912C118.714 10.7719 119 11.614 119 12.1754V13.0175L115.571 13.2982C114.143 13.5789 113 13.5789 112.143 14.1404C111.286 14.4211 110.429 14.7018 109.857 15.5439C109.286 16.1053 109 16.9474 109 17.7895C109 18.6316 109.286 19.193 109.571 20.0351C110.143 20.5965 110.714 21.1579 111.571 21.4386C112.143 21.7193 113 22 113.857 22C115 22 115.857 21.7193 116.714 21.4386C117.571 20.8772 118.143 20.3158 118.429 19.7544C118.714 19.193 119 18.3509 119 17.7895L119.286 22L123 21.4386L122.714 18.3509V11.8947ZM118.429 18.3509C118.143 18.6316 117.857 18.9123 117.286 18.9123C116.714 19.193 116.143 19.193 115.571 19.193C115 19.193 114.714 19.193 114.143 18.9123C113.571 18.9123 113.286 18.6316 113 18.0702C112.714 17.7895 112.714 17.2281 112.714 16.9474C112.714 16.1053 113 15.5439 113.571 14.9825C114.429 14.7018 115.286 14.4211 116.429 14.1404H119V17.2281C119 17.5088 118.714 18.0702 118.429 18.3509Z" fill="#2B2A29"/>
<path d="M131.703 3.46667C132.514 3.73333 133.054 4 134.135 4C134.946 4 135.757 3.73333 136.297 3.46667C137.108 3.2 137.649 2.66667 137.919 2.13333C138.459 1.6 138.73 0.8 139 0H134.946L136.297 2.4C136.027 2.66667 136.027 2.66667 135.757 2.93333C135.216 2.93333 134.676 3.2 134.135 3.2C133.324 3.2 132.784 2.93333 132.243 2.93333C132.243 2.66667 131.973 2.66667 131.703 2.4L133.054 0H129C129.27 0.8 129.541 1.6 130.081 2.13333C130.351 2.66667 130.892 3.2 131.703 3.46667Z" fill="#2B2A29"/>
<path d="M137.64 6L130.64 19.6727V8.32727V6H127V8.32727V20.2545V22H130.64L137.36 8.61818V19.6727V22H141V19.6727V8.03636V6H137.64Z" fill="#2B2A29"/>
</svg>
