<svg width="25" height="15" viewBox="0 0 25 15" fill="none" xmlns="http://www.w3.org/2000/svg">
<path fill-rule="evenodd" clip-rule="evenodd" d="M12.1285 12.544C13.3904 13.7067 15.085 14.412 16.9282 14.412C20.8868 14.412 24.0908 11.1832 24.0908 7.21211C24.0908 3.22889 20.8868 0 16.9282 0C15.085 0 13.3904 0.705123 12.1285 1.868C10.6811 3.19161 9.76562 5.09674 9.76562 7.21211C9.76577 9.32748 10.6811 11.2327 12.1285 12.544Z" fill="#E9B040"/>
<path fill-rule="evenodd" clip-rule="evenodd" d="M23.1387 11.2207C23.1387 11.0969 23.2377 10.998 23.3613 10.998C23.4973 10.998 23.5961 11.0971 23.5961 11.2207C23.5961 11.3569 23.4971 11.4558 23.3613 11.4558C23.2377 11.4558 23.1387 11.3569 23.1387 11.2207ZM23.3613 11.4064C23.4603 11.4064 23.5466 11.3197 23.5466 11.2208C23.5466 11.1219 23.4601 11.0477 23.3613 11.0477C23.2745 11.0477 23.1882 11.1219 23.1882 11.2208C23.1882 11.3197 23.2747 11.4064 23.3613 11.4064ZM23.3365 11.3322H23.287V11.1218H23.3735C23.386 11.1218 23.4108 11.1218 23.423 11.1343C23.4478 11.1466 23.4478 11.1591 23.4478 11.1838C23.4478 11.2086 23.4355 11.2333 23.4108 11.2333L23.4603 11.3323H23.3983L23.3735 11.2456H23.3365V11.3322V11.2084H23.386C23.3983 11.2084 23.3983 11.1959 23.3983 11.1837C23.3983 11.1712 23.3983 11.1712 23.386 11.1589H23.3365V11.3322Z" fill="#E9B040"/>
<path fill-rule="evenodd" clip-rule="evenodd" d="M14.4419 6.44525C14.4171 6.18551 14.3676 5.93814 14.3181 5.67825H9.93889C9.9884 5.41851 10.0626 5.17114 10.1368 4.92363H14.1079C14.0217 4.6632 13.9226 4.40722 13.811 4.15663H10.4461C10.5699 3.89459 10.7062 3.63863 10.8544 3.38963H13.3905C13.2274 3.12542 13.0455 2.87324 12.8463 2.635H11.3988C11.6227 2.36156 11.8667 2.10519 12.1287 1.868C10.8545 0.717498 9.17204 0 7.31641 0C3.37017 0 0.153809 3.22889 0.153809 7.21211C0.153809 11.1832 3.37017 14.412 7.31641 14.412C9.17204 14.412 10.8544 13.7067 12.1287 12.544C12.3867 12.311 12.6266 12.0586 12.8463 11.7892H11.3988C11.2008 11.5418 11.0277 11.2945 10.8544 11.0222H13.3905C13.55 10.7776 13.6906 10.5212 13.8112 10.2552H10.4461C10.3348 10.0078 10.2235 9.76048 10.1368 9.50044H14.1079C14.1944 9.25308 14.2564 8.99348 14.318 8.73344C14.3675 8.48608 14.417 8.22648 14.4417 7.96644C14.4668 7.71564 14.4793 7.46373 14.479 7.21167C14.479 6.95236 14.4666 6.69262 14.4419 6.44525Z" fill="#CC2131"/>
<path fill-rule="evenodd" clip-rule="evenodd" d="M23.1387 8.88231C23.1387 8.74632 23.2377 8.64746 23.3613 8.64746C23.4973 8.64746 23.5961 8.74647 23.5961 8.88231C23.5961 9.00606 23.4971 9.11744 23.3613 9.11744C23.2377 9.11744 23.1387 9.00592 23.1387 8.88231ZM23.3613 9.05542C23.4603 9.05542 23.5466 8.98117 23.5466 8.88231C23.5466 8.78345 23.4601 8.70919 23.3613 8.70919C23.2745 8.70919 23.1882 8.78345 23.1882 8.88231C23.1882 8.98117 23.2747 9.05542 23.3613 9.05542ZM23.3365 8.98117H23.287V8.7833H23.423C23.4478 8.79582 23.4478 8.82057 23.4478 8.84533C23.4478 8.85756 23.4355 8.88231 23.4108 8.89483L23.4603 8.98131H23.3983L23.3735 8.90706H23.3365V8.98117V8.86993H23.3613C23.3735 8.86993 23.386 8.86993 23.386 8.85741C23.3983 8.85741 23.3983 8.84518 23.3983 8.83266C23.3983 8.83266 23.3983 8.82043 23.386 8.82043C23.386 8.80791 23.3735 8.82043 23.3613 8.82043H23.3365V8.98117Z" fill="white"/>
<path fill-rule="evenodd" clip-rule="evenodd" d="M9.69156 9.29033C9.45656 9.35206 9.28331 9.38933 9.11019 9.38933C8.73907 9.38933 8.5163 9.15419 8.5163 8.73357C8.5163 8.64708 8.52868 8.56045 8.54106 8.46145L8.59056 8.1771L8.62769 7.94196L8.96168 5.91322H9.70393L9.6173 6.3586H10.0874L9.97605 7.10085H9.50592L9.30806 8.31308C9.29568 8.37511 9.29568 8.41209 9.29568 8.43684C9.29568 8.59772 9.36994 8.65946 9.55543 8.65946C9.64205 8.65946 9.71616 8.64723 9.79042 8.63471L9.69156 9.29033ZM12.0916 9.26557C11.8194 9.33983 11.5721 9.37681 11.2998 9.37681C10.4586 9.37681 9.97605 8.93143 9.97605 8.05334C9.97605 7.02645 10.5452 6.2842 11.3368 6.2842C11.9677 6.2842 12.3759 6.70483 12.3759 7.3603C12.3759 7.58321 12.3512 7.79345 12.2894 8.09032H10.7431C10.7307 8.13982 10.7307 8.16458 10.7307 8.18933C10.7307 8.5357 10.9657 8.70881 11.411 8.70881C11.6955 8.70881 11.9429 8.64708 12.2152 8.52347L12.0916 9.26557ZM11.6338 7.49658V7.34807C11.6338 7.1007 11.4977 6.96457 11.2627 6.96457C11.0152 6.96457 10.8421 7.15006 10.7678 7.49643L11.6338 7.49658ZM3.75356 9.32731H2.98656L3.43194 6.51934L2.42995 9.32731H1.89808L1.83621 6.53171L1.36608 9.32731H0.61145L1.21757 5.67808H2.34332L2.36807 7.92973L3.12269 5.67808H4.35982L3.75356 9.32731ZM5.62171 8.00384C5.54745 7.99132 5.5227 7.99132 5.4732 7.99132C5.02782 7.99132 4.8052 8.16443 4.8052 8.4367C4.8052 8.62233 4.91658 8.74609 5.0897 8.74609C5.46082 8.74609 5.60919 8.4367 5.62171 8.00384ZM6.2402 9.32731H5.5722L5.58458 9.01821C5.41132 9.25305 5.17633 9.37681 4.76808 9.37681C4.39695 9.37681 4.07533 9.04296 4.07533 8.56045C4.07533 8.42446 4.10008 8.30085 4.13721 8.1771C4.26082 7.7192 4.71857 7.43485 5.4237 7.42233C5.51033 7.42233 5.64631 7.42233 5.77007 7.43485C5.79467 7.33584 5.79467 7.29857 5.79467 7.23684C5.79467 7.03883 5.63394 6.97695 5.27519 6.97695C5.05257 6.97695 4.80506 7.01407 4.63194 7.07595L4.52056 7.1007L4.47106 7.11293L4.58244 6.44494C4.94119 6.33356 5.20093 6.2842 5.48557 6.2842C6.15357 6.2842 6.51232 6.59345 6.51232 7.16244C6.51232 7.31095 6.52469 7.42233 6.47519 7.74395L6.30208 8.80782L6.27733 8.99345L6.26495 9.14196L6.25258 9.24097L6.2402 9.32731ZM15.8276 6.38321C16.0502 6.38321 16.2482 6.44508 16.5203 6.58107L16.6563 5.78932C16.582 5.75219 16.5573 5.75219 16.4584 5.71507L16.1493 5.62844C16.0503 5.60368 15.9267 5.59131 15.7904 5.59131C15.4068 5.59131 15.1842 5.60368 14.9493 5.73982C14.8256 5.82645 14.6647 5.93783 14.4914 6.13569L14.3924 6.11094L13.6007 6.66756L13.6379 6.35831H12.8213L12.3391 9.32716H13.1186L13.4029 7.73157C13.4029 7.73157 13.5145 7.50866 13.5638 7.4347C13.7123 7.24907 13.836 7.24907 13.9967 7.24907H14.0587C14.0327 7.4376 14.0203 7.62775 14.0214 7.81806C14.0214 8.78292 14.5657 9.38919 15.4069 9.38919C15.6173 9.38919 15.8031 9.36443 16.0875 9.29018L16.2237 8.44907C15.9764 8.58506 15.7536 8.64694 15.568 8.64694C15.1104 8.64694 14.8379 8.30056 14.8379 7.75632C14.8377 6.9522 15.2461 6.38321 15.8276 6.38321ZM22.3961 5.67808L22.2232 6.7172C22.0375 6.43271 21.8148 6.29658 21.5179 6.29658C21.1095 6.29658 20.7261 6.53157 20.491 6.97695V6.96472L19.9963 6.6677L20.0458 6.35845H19.2169L18.7468 9.32731H19.5138L19.7737 7.73172C19.7737 7.73172 19.9715 7.50881 20.021 7.43485C20.1448 7.28634 20.2684 7.26144 20.3674 7.24921C20.2809 7.49658 20.2314 7.79345 20.2314 8.12759C20.2314 8.86984 20.6148 9.36458 21.1838 9.36458C21.4684 9.36458 21.691 9.26557 21.9013 9.03044L21.8643 9.32731H22.5943L23.188 5.67808H22.3961ZM21.4438 8.62233C21.1839 8.62233 21.0479 8.42446 21.0479 8.04082C21.0479 7.45931 21.2953 7.03883 21.6539 7.03883C21.926 7.03883 22.0623 7.24921 22.0623 7.62034C22.0623 8.21408 21.8149 8.62233 21.4438 8.62233ZM17.8688 8.00384C17.7946 7.99132 17.7698 7.99132 17.7203 7.99132C17.2746 7.99132 17.052 8.16443 17.052 8.4367C17.052 8.62233 17.1636 8.74609 17.3367 8.74609C17.7078 8.74609 17.8563 8.4367 17.8688 8.00384ZM18.4873 9.32731H17.8068L17.8315 9.01821C17.6584 9.25305 17.4232 9.37681 17.0152 9.37681C16.6315 9.37681 16.2977 9.05519 16.2977 8.56045C16.2977 7.85547 16.8294 7.42247 17.6707 7.42247C17.7574 7.42247 17.8933 7.42247 18.0048 7.43499C18.0296 7.33599 18.0421 7.29872 18.0421 7.23698C18.0421 7.03897 17.8812 6.97709 17.5101 6.97709C17.2997 6.97709 17.0399 7.01422 16.8668 7.0761L16.7678 7.10085L16.7183 7.11308L16.8296 6.44508C17.1884 6.3337 17.4483 6.28435 17.7327 6.28435C18.4007 6.28435 18.7471 6.59359 18.7471 7.16258C18.7471 7.31109 18.7718 7.42247 18.7101 7.74409L18.5492 8.80797L18.5244 8.9936L18.4997 9.14211L18.4875 9.24111V9.32731H18.4873ZM7.86069 6.98932C8.00919 6.98932 8.21943 7.0017 8.4422 7.03883L8.55358 6.34608C8.33081 6.32133 8.03395 6.2842 7.86069 6.2842C6.99482 6.2842 6.71033 6.75433 6.71033 7.29857C6.71033 7.65746 6.87107 7.91706 7.2917 8.11493C7.60094 8.26344 7.65044 8.28804 7.65044 8.42432C7.65044 8.60966 7.48971 8.72119 7.19269 8.72119C6.9577 8.72119 6.73494 8.68392 6.48757 8.59743L6.40094 9.27766L6.41317 9.29018L6.56168 9.31493C6.61118 9.32716 6.67306 9.33968 6.75969 9.35191C6.94518 9.36443 7.10606 9.37666 7.20507 9.37666C8.07107 9.37666 8.42982 9.04281 8.42982 8.38705C8.42982 7.97894 8.23181 7.73157 7.84831 7.55846C7.51431 7.40981 7.47718 7.38535 7.47718 7.24907C7.47718 7.11308 7.62569 6.98932 7.86069 6.98932Z" fill="#1B3771"/>
<path fill-rule="evenodd" clip-rule="evenodd" d="M16.8667 5.55463L16.7304 6.34638C16.4583 6.21025 16.2602 6.14852 16.0376 6.14852C15.4561 6.14852 15.048 6.71751 15.048 7.52163C15.048 8.07839 15.3201 8.41225 15.778 8.41225C15.9634 8.41225 16.1861 8.35051 16.4335 8.2269L16.2975 9.05549C16.0129 9.12975 15.8274 9.16702 15.617 9.16702C14.7759 9.16702 14.2563 8.56076 14.2563 7.58366C14.2563 6.28465 14.9738 5.36914 16.0005 5.36914C16.1365 5.36914 16.2601 5.38152 16.3591 5.40627L16.6685 5.48052C16.7676 5.51765 16.7924 5.53002 16.8667 5.55463ZM14.3676 6.09901H14.2934C14.0338 6.09901 13.8853 6.22277 13.6501 6.58137L13.7244 6.12362H13.0191L12.5369 9.09262H13.3164C13.6008 7.27412 13.675 6.96487 14.0462 6.96487H14.0957C14.1699 6.60613 14.2688 6.34624 14.3925 6.11124L14.3676 6.09901ZM9.88954 9.05549C9.6793 9.12975 9.50604 9.1545 9.33292 9.1545C8.93705 9.1545 8.71429 8.93188 8.71429 8.49902C8.71429 8.42477 8.72666 8.32591 8.73904 8.23913L8.78854 7.94226L8.82567 7.70742L9.15966 5.67839H9.92666L9.84004 6.12377H10.2359L10.1369 6.85364H9.74103L9.53079 8.09077C9.51841 8.14027 9.51841 8.17755 9.51841 8.21453C9.51841 8.36304 9.59267 8.42491 9.77816 8.42491C9.86479 8.42491 9.9389 8.42491 9.9884 8.40016L9.88954 9.05549ZM6.90816 7.06388C6.90816 7.43515 7.08128 7.69475 7.48953 7.89276C7.81115 8.04127 7.86066 8.09062 7.86066 8.21438C7.86066 8.40002 7.72452 8.4865 7.41528 8.4865C7.18028 8.4865 6.9699 8.44952 6.72253 8.37526L6.61115 9.05549L6.64828 9.06801L6.78441 9.09276C6.83377 9.10499 6.89579 9.11751 6.99465 9.11751C7.16776 9.14227 7.31627 9.14227 7.41528 9.14227C8.23163 9.14227 8.61528 8.83287 8.61528 8.15265C8.61528 7.74425 8.45454 7.50911 8.07104 7.32377C7.73704 7.17526 7.69992 7.13828 7.69992 7.00215C7.69992 6.84141 7.83605 6.76716 8.08342 6.76716C8.23193 6.76716 8.44217 6.77953 8.64018 6.80428L8.75141 6.12391C8.55355 6.08678 8.2443 6.06203 8.07104 6.06203C7.20504 6.06189 6.89579 6.51964 6.90816 7.06388ZM22.7923 9.09276H22.0623L22.0995 8.80812C21.8891 9.03074 21.6664 9.12974 21.3817 9.12974C20.8127 9.12974 20.4416 8.64753 20.4416 7.90528C20.4416 6.91552 21.0231 6.07426 21.7034 6.07426C22.0128 6.07426 22.2354 6.21039 22.4459 6.48251L22.619 5.4434H23.386L22.7923 9.09276ZM21.654 8.40002C22.0129 8.40002 22.2603 7.97939 22.2603 7.39788C22.2603 7.01438 22.124 6.81637 21.8519 6.81637C21.5055 6.81637 21.2459 7.22462 21.2459 7.80613C21.2459 8.20215 21.3819 8.40002 21.654 8.40002ZM12.2646 9.03074C11.9924 9.11752 11.745 9.1545 11.4605 9.1545C10.5945 9.1545 10.1491 8.69689 10.1491 7.81851C10.1491 6.80414 10.7183 6.04951 11.4976 6.04951C12.1409 6.04951 12.549 6.47014 12.549 7.12576C12.549 7.34852 12.5242 7.55891 12.45 7.86801H10.9163C10.9039 7.90528 10.9039 7.93003 10.9039 7.95478C10.9039 8.30116 11.139 8.47427 11.5843 8.47427C11.8688 8.47427 12.1161 8.42477 12.3884 8.28864L12.2646 9.03074ZM11.8316 7.26175V7.11338C11.8316 6.86601 11.6955 6.72988 11.4605 6.72988C11.2132 6.72988 11.0399 6.91552 10.9656 7.26175H11.8316ZM3.95154 9.09276H3.18454L3.62992 6.2845L2.62793 9.09276H2.09592L2.03404 6.30926L1.56406 9.09276H0.846558L1.45267 5.4434H2.56605L2.60318 7.70727L3.34528 5.4434H4.55766L3.95154 9.09276ZM5.86904 7.769C5.79479 7.769 5.75766 7.75677 5.69579 7.75677C5.26278 7.75677 5.04017 7.91751 5.04017 8.21438C5.04017 8.40002 5.13917 8.51125 5.31228 8.51125C5.63391 8.51125 5.85667 8.21438 5.86904 7.769ZM6.43803 9.09276H5.79464L5.80702 8.78337C5.60901 9.03074 5.34927 9.14227 4.99052 9.14227C4.56989 9.14227 4.28539 8.82064 4.28539 8.33814C4.28539 7.60841 4.78013 7.18778 5.64614 7.18778C5.73277 7.18778 5.84415 7.20016 5.96776 7.21239C5.99251 7.11353 5.99251 7.0764 5.99251 7.0269C5.99251 6.82903 5.85638 6.75478 5.49763 6.75478C5.27501 6.75478 5.0275 6.77953 4.85438 6.82903L4.743 6.86616L4.66875 6.87854L4.78013 6.21054C5.16363 6.09916 5.42337 6.06203 5.70801 6.06203C6.37601 6.06203 6.73476 6.3589 6.73476 6.92789C6.73476 7.0764 6.72238 7.18778 6.67288 7.52178L6.49962 8.57342L6.47487 8.75877L6.46249 8.90727L6.45012 9.0188L6.43803 9.09276ZM18.1162 7.769C18.0294 7.769 17.9924 7.75677 17.943 7.75677C17.4977 7.75677 17.2748 7.91751 17.2748 8.21438C17.2748 8.40002 17.3863 8.51125 17.5594 8.51125C17.8688 8.51125 18.1036 8.21438 18.1162 7.769ZM18.6852 9.09276H18.0419L18.0541 8.78337C17.8563 9.03074 17.5965 9.14227 17.2378 9.14227C16.8172 9.14227 16.5325 8.82064 16.5325 8.33814C16.5325 7.60841 17.0272 7.18778 17.8933 7.18778C17.98 7.18778 18.0914 7.20016 18.2026 7.21239C18.2274 7.11353 18.2399 7.0764 18.2399 7.0269C18.2399 6.82903 18.1036 6.75478 17.7452 6.75478C17.5223 6.75478 17.2627 6.77953 17.0894 6.82903L16.9904 6.86616L16.9162 6.87854L17.0274 6.21054C17.411 6.09916 17.6706 6.06203 17.9553 6.06203C18.6233 6.06203 18.9696 6.3589 18.9696 6.92789C18.9696 7.0764 18.9696 7.18778 18.9079 7.52178L18.747 8.57342L18.7223 8.75877L18.6975 8.90727L18.6853 9.0188L18.6852 9.09276ZM20.7634 6.09901H20.6891C20.4295 6.09901 20.281 6.22277 20.0459 6.58137L20.1201 6.12362H19.4149L18.9447 9.09262H19.7117C19.9964 7.27412 20.0706 6.96487 20.4418 6.96487H20.4913C20.5655 6.60613 20.6644 6.34624 20.7881 6.11124L20.7634 6.09901Z" fill="white"/>
</svg>
