<svg width="185" height="88" viewBox="0 0 185 88" fill="none" xmlns="http://www.w3.org/2000/svg">
<path d="M90.3359 49.1893H93.0339V55.2555H94.9829L98.481 49.1893H101.43L97.2318 56.3091V56.3586L101.68 64.128H98.6313L95.0328 57.6101H93.085V64.128H90.3858V49.1875L90.3359 49.1893ZM107.727 53.1505C110.973 53.1505 113.623 55.5063 113.623 58.765C113.623 62.0749 111.024 64.3806 107.777 64.3806C104.527 64.3806 101.929 62.0743 101.929 58.765C101.879 55.4563 104.478 53.1505 107.727 53.1505ZM115.721 53.3997H118.27V61.8234H121.619V53.4014H124.166V61.8234H127.515V53.4014H130.063V64.128H115.821V53.3997H115.721ZM137.61 53.1505C140.658 53.1505 142.357 55.4062 142.357 58.2149C142.349 58.5673 142.315 58.9186 142.257 59.2662H134.911C135.061 61.1208 136.511 62.1244 138.111 62.1244C139.208 62.1244 140.308 61.6226 141.158 60.9712L142.208 62.8771C141.108 63.8276 139.459 64.4307 137.91 64.4307C134.361 64.4307 132.163 61.8735 132.163 58.8145C132.163 55.4563 134.41 53.1505 137.61 53.1505ZM143.606 61.8735C144.906 61.6727 145.855 60.5707 145.855 56.759V53.4014H153.652V64.128H151.002V55.5546H148.404V56.7579C148.404 61.42 147.155 64.128 143.606 64.2281V61.8735ZM161.247 53.1505C164.295 53.1505 165.993 55.4062 165.993 58.2149C165.985 58.5673 165.952 58.9186 165.894 59.2662H158.547C158.698 61.1208 160.147 62.1244 161.747 62.1244C162.845 62.1244 163.945 61.6226 164.794 60.9712L165.845 62.8771C164.745 63.8276 163.095 64.4307 161.547 64.4307C157.999 64.4307 155.8 61.8735 155.8 58.8145C155.8 55.4563 158.049 53.1505 161.247 53.1505ZM168.193 53.3997H170.841V57.5117H172.141L174.74 53.4008H177.688L174.289 58.5141V58.5654L178.087 64.128H174.99L172.191 59.768H170.793V64.128H168.141V53.3997H168.193ZM107.727 62.0749C109.476 62.0749 110.925 60.7203 110.925 58.7149C110.925 56.7596 109.476 55.355 107.726 55.355C105.978 55.355 104.579 56.7107 104.579 58.7149C104.579 60.7203 105.976 62.0749 107.727 62.0749ZM139.659 57.4122C139.659 56.0081 138.708 55.1559 137.509 55.1559C136.162 55.1559 135.161 56.0582 134.911 57.4116L139.659 57.4122ZM163.295 57.4122C163.295 56.0081 162.347 55.1559 161.147 55.1559C159.796 55.1559 158.798 56.0582 158.547 57.4116L163.295 57.4122Z" fill="#2D3540"/>
<path d="M127.665 16.6505V41.9694C127.668 42.062 127.651 42.1541 127.617 42.2401C127.582 42.3261 127.531 42.4042 127.465 42.4697C127.4 42.5352 127.322 42.5867 127.237 42.6212C127.151 42.6557 127.059 42.6724 126.967 42.6703H121.819C121.726 42.6724 121.634 42.6557 121.549 42.6212C121.463 42.5867 121.385 42.5352 121.32 42.4697C121.255 42.4042 121.203 42.3261 121.169 42.2401C121.135 42.1541 121.118 42.062 121.12 41.9694V16.6505C121.118 16.5578 121.135 16.4658 121.169 16.3798C121.203 16.2938 121.255 16.2157 121.32 16.1502C121.385 16.0847 121.463 16.0332 121.549 15.9987C121.634 15.9642 121.726 15.9475 121.819 15.9496H126.967C127.059 15.9475 127.151 15.9642 127.237 15.9987C127.322 16.0332 127.4 16.0847 127.465 16.1502C127.531 16.2157 127.582 16.2938 127.617 16.3798C127.651 16.4658 127.668 16.5578 127.665 16.6505ZM167.843 15.9496C168.044 15.9496 168.294 16.0491 168.542 16.25C168.693 16.3996 168.693 16.6505 168.643 16.8519L160.147 42.2203C160.096 42.3516 160.006 42.4645 159.891 42.5449C159.775 42.6253 159.639 42.6695 159.498 42.672H154.901C154.601 42.672 154.351 42.5207 154.252 42.2203L149.301 27.4306L144.354 42.2191C144.303 42.3503 144.213 42.4631 144.098 42.5434C143.982 42.6237 143.845 42.6678 143.705 42.6703H139.108C138.809 42.6703 138.558 42.5207 138.459 42.2185L129.962 16.8501C129.912 16.6505 129.912 16.4496 130.062 16.25C130.162 16.0491 130.412 15.9496 130.611 15.9496H136.358C136.658 15.9496 136.908 16.1487 137.009 16.4496L141.555 31.4402L146.553 16.4496C146.605 16.3184 146.694 16.2054 146.81 16.125C146.925 16.0446 147.062 16.0004 147.202 15.9979H151.25C151.549 15.9979 151.8 16.1487 151.899 16.4496L156.897 31.4402L161.445 16.4496C161.486 16.3075 161.571 16.1823 161.688 16.0922C161.805 16.0021 161.947 15.9519 162.094 15.949L167.843 15.9496ZM176.538 15.9496C176.888 15.9496 177.188 16.25 177.237 16.6505V41.9694C177.239 42.062 177.222 42.1541 177.188 42.2401C177.154 42.3261 177.102 42.4042 177.037 42.4697C176.972 42.5352 176.894 42.5867 176.808 42.6212C176.722 42.6557 176.631 42.6724 176.538 42.6703H171.391C171.298 42.6724 171.207 42.6557 171.121 42.6212C171.035 42.5867 170.957 42.5352 170.892 42.4697C170.827 42.4042 170.775 42.3261 170.741 42.2401C170.707 42.1541 170.69 42.062 170.692 41.9694V16.6505C170.69 16.5578 170.707 16.4658 170.741 16.3798C170.775 16.2938 170.827 16.2157 170.892 16.1502C170.957 16.0847 171.035 16.0332 171.121 15.9987C171.207 15.9642 171.298 15.9475 171.391 15.9496H176.538ZM118.121 41.7698C118.42 42.1202 118.171 42.6208 117.72 42.6208H111.423C111.299 42.6241 111.176 42.5987 111.064 42.5465C110.951 42.4943 110.852 42.4168 110.774 42.3198L109.726 41.0171C107.527 42.4194 104.927 43.2734 102.179 43.2734C94.4845 43.2734 88.2373 37.0063 88.2373 29.2852C88.2373 21.5641 94.4845 15.2965 102.179 15.2965C109.875 15.2965 116.122 21.5641 116.122 29.2852C116.122 32.0433 115.322 34.6505 113.923 36.855L118.121 41.7698ZM65.4997 54.0523C66.7994 54.5535 67.2996 56.5082 67.3988 57.3605C67.5995 58.9153 67.1505 59.5166 66.6503 59.5166C66.1502 59.5166 65.4498 58.9159 64.7014 57.7126C63.9505 56.5077 63.6506 55.1554 64.0515 54.4528C64.3004 54.0005 64.8487 53.8014 65.4997 54.0523ZM57.9041 59.718C58.7042 59.718 59.6036 60.0684 60.4031 60.7699C61.9517 62.0738 62.4025 63.578 61.6024 64.6805C61.1521 65.2324 60.4031 65.5834 59.5537 65.5834C58.7042 65.5834 57.8043 65.2824 57.2055 64.7306C55.806 63.5279 55.4068 61.5208 56.3044 60.4195C56.6555 59.9671 57.2055 59.718 57.9041 59.718ZM40.4152 74.2062C21.4241 74.2068 6.0332 58.7645 6.0332 39.7137C6.0332 20.6618 21.4252 5.2207 40.4134 5.2207C59.4022 5.2207 74.7948 20.663 74.7948 39.7132C74.7948 46.1798 72.9961 52.2478 69.9489 57.4111C69.8479 57.5613 69.5978 57.5112 69.5479 57.3104C68.3486 48.8383 63.2021 44.1744 55.7057 42.7716C55.0552 42.6703 54.9554 42.2698 55.8054 42.1702C58.1043 41.9694 61.3517 42.0189 63.0512 42.3198C63.1521 41.4379 63.2023 40.5508 63.2015 39.6631C63.2015 27.0784 53.0065 16.8501 40.4627 16.8501C27.9208 16.8501 17.7257 27.0784 17.7257 39.6631C17.7257 52.2478 27.9208 62.4761 40.4645 62.4761H41.5129C41.1566 60.4406 41.0056 58.3744 41.0621 56.3086C41.1138 54.9045 41.4131 54.7031 42.0131 55.8068C45.1614 61.2717 49.6592 66.1847 58.4536 68.1406C65.6494 69.7455 72.8453 71.5995 80.5906 81.4762C81.2903 82.3284 80.2419 83.2307 79.4418 82.5292C71.5468 75.5089 64.3509 73.2032 57.8037 73.2032C50.4576 73.2544 45.4625 74.2062 40.4152 74.2062ZM105.628 36.1541L102.879 32.7942C102.58 32.4437 102.83 31.8919 103.279 31.8919H109.076C109.375 31.0897 109.526 30.1875 109.526 29.2852C109.526 25.1243 106.428 21.514 102.179 21.514C97.9333 21.514 94.8332 25.1243 94.8332 29.2852C94.8332 33.4455 97.9327 37.0063 102.179 37.0063C103.379 37.0558 104.579 36.7066 105.628 36.1541Z" fill="#FF8C00"/>
</svg>
