<svg width="44" height="14" viewBox="0 0 44 14" fill="none" xmlns="http://www.w3.org/2000/svg">
<path d="M18.7075 13.7666H15.1863L17.387 0.241672H20.9086L18.7075 13.7666ZM12.224 0.241672L8.86699 9.54425L8.46975 7.54105L8.47011 7.54177L7.28527 1.45944C7.28527 1.45944 7.142 0.241672 5.61491 0.241672H0.0651214L0 0.470682C0 0.470682 1.69713 0.823784 3.68333 2.01659L6.74259 13.767H10.4115L16.0137 0.241672H12.224ZM39.9205 13.7666H43.1537L40.3347 0.241311H37.5041C36.197 0.241311 35.8786 1.24924 35.8786 1.24924L30.6269 13.7666H34.2976L35.0317 11.7577H39.508L39.9205 13.7666ZM36.0457 8.9824L37.8959 3.92103L38.9368 8.9824H36.0457ZM30.9022 3.49412L31.4048 0.589709C31.4048 0.589709 29.8541 0 28.2377 0C26.4903 0 22.3406 0.763728 22.3406 4.47745C22.3406 7.97157 27.2109 8.01499 27.2109 9.85032C27.2109 11.6857 22.8424 11.3568 21.4007 10.1994L20.8772 13.2363C20.8772 13.2363 22.4495 14 24.8517 14C27.2547 14 30.8798 12.7558 30.8798 9.36951C30.8798 5.85296 25.9657 5.52554 25.9657 3.99664C25.966 2.46737 29.3954 2.66382 30.9022 3.49412Z" fill="#2566AF"/>
<path d="M8.47011 7.5418L7.28527 1.45947C7.28527 1.45947 7.142 0.241699 5.61491 0.241699H0.0651214L0 0.470709C0 0.470709 2.66744 1.02352 5.22599 3.09474C7.67238 5.07442 8.47011 7.5418 8.47011 7.5418Z" fill="#E6A540"/>
</svg>
