<svg width="240" height="54" viewBox="0 0 240 54" fill="none" xmlns="http://www.w3.org/2000/svg">
<path d="M210.855 27.1551C210.855 20.5316 205.905 15.1738 198.913 15.1738C192.06 15.1738 187.18 20.3258 187.18 27.4048C187.18 34.5193 192.198 39.7067 199.398 39.7067C203.966 39.7067 207.808 37.6378 210.196 33.4326L205.351 31.1545C204.21 33.2571 201.716 34.624 199.398 34.624C196.456 34.624 193.065 32.3813 192.856 29.2628H210.681C210.795 28.5661 210.853 27.8612 210.855 27.1551ZM192.96 25.1301C193.376 21.9761 195.521 19.909 198.948 19.909C202.34 19.909 204.416 21.934 204.693 25.1301H192.96Z" fill="black"/>
<path d="M144.131 15.1689C137.104 15.1689 132.121 20.2871 132.121 27.5063C132.121 34.6545 137.104 39.7018 144.201 39.7018C151.331 39.7018 156.314 34.6545 156.314 27.6109C156.314 20.3563 151.193 15.1689 144.131 15.1689ZM144.201 34.3389C140.669 34.3389 138.489 31.6761 138.489 27.54C138.489 23.3348 140.704 20.4609 144.201 20.4609C147.731 20.4609 149.946 23.2993 149.946 27.54C149.946 31.7115 147.766 34.3389 144.201 34.3389Z" fill="black"/>
<path d="M119.111 15.1752C116.232 15.1752 114.064 16.1708 111.896 18.6396H111.184C109.727 16.4105 107.351 15.1752 104.684 15.1752C103.352 15.162 102.037 15.4692 100.846 16.0716C99.6546 16.6739 98.6217 17.5541 97.8322 18.6396H97.1206L97.0856 18.6059V15.6561H91.1289V39.1867H97.5656V27.0772C97.5656 23.1672 99.1922 20.8688 102.004 20.8688C104.612 20.8688 106.306 22.8246 106.306 25.8081V39.1867H112.776V27.0772C112.776 23.1959 114.402 20.8688 117.249 20.8688C119.822 20.8688 121.482 22.8246 121.482 25.8436V39.1867H127.954V25.0538C127.954 18.9147 124.701 15.1752 119.111 15.1752Z" fill="black"/>
<path d="M225.167 31.0262H224.707C224.707 30.6077 221.901 23.1557 220.061 18.5387L218.911 15.6514H212.426L221.626 39.2646L218.001 48.2623H224.441L237.689 15.6598H231.201L230.142 18.1286L226.554 27.1179C225.542 29.6289 225.127 30.7933 225.167 31.0262Z" fill="black"/>
<path d="M174.168 15.1758C171.288 15.1758 168.814 16.4448 167.154 18.7094H166.476L166.409 18.6757V15.6567H160.449V39.1872H166.886V27.1469C166.886 23.3062 168.719 20.9032 171.731 20.9032C174.543 20.9032 176.609 23.0294 176.609 26.3909V39.1855H183.046V24.9869C183.046 19.2241 179.319 15.1758 174.168 15.1758Z" fill="black"/>
<path d="M47.4137 1.6875C33.507 1.6875 22.332 13.0781 22.332 27C22.332 41.0366 33.617 52.3125 47.4104 52.3125C61.2037 52.3125 72.4987 40.9219 72.4987 27C72.4987 13.0781 61.207 1.6875 47.4137 1.6875ZM47.4137 36.4348C42.2837 36.4348 38.067 32.1772 38.067 27C38.067 21.8228 42.2837 17.5652 47.4137 17.5652C52.5437 17.5652 56.762 21.8228 56.762 27C56.647 32.1772 52.5437 36.4348 47.4137 36.4348Z" fill="#8B3FFD"/>
<path d="M22.3335 9.04199V45.8599H13.4469L2.04688 9.04199H22.3335Z" fill="#8B3FFD"/>
</svg>
